<svg xmlns="http://www.w3.org/2000/svg" viewBox="0 0 1800 1800" width="1800" height="1800"><g transform="translate(206.0 1582.0) rotate(0.0 136.0 22.5) scale(0.6999557380930324 0.6859860668607752)"><svg width="388.596" height="65.599" viewBox="0 0 388.596 65.599"><ellipse cx="194.298" cy="32.799" fill="#cbc8ff" rx="194.298" ry="32.799"/></svg></g><g transform="translate(1147.0 1581.0) rotate(0.0 139.0 23.0) scale(0.7153959381980257 0.7012302016799036)"><svg width="388.596" height="65.599" viewBox="0 0 388.596 65.599"><ellipse cx="194.298" cy="32.799" fill="#cbc8ff" rx="194.298" ry="32.799"/></svg></g><g transform="translate(648.0 112.0) rotate(0.0 215.5 215.5) scale(0.999302111518406 0.999302111518406)"><svg width="431.301" height="431.301" viewBox="0 0 431.301 431.301"><path d="M379.569 249.218c-47.634-9.755-11.645-62.965 50.732-75.007-62.377 12.042-115.587-23.947-75.007-50.732-40.58 26.785-52.757-36.289-17.165-88.911-35.592 52.623-98.666 64.799-88.911 17.165-9.755 47.634-62.965 11.645-75.007-50.732 12.042 62.377-23.947 115.587-50.732 75.007 26.785 40.58-36.289 52.757-88.911 17.165 52.623 35.592 64.799 98.666 17.165 88.911 47.634 9.755 11.645 62.965-50.732 75.007 62.377-12.042 115.587 23.947 75.007 50.732 40.58-26.785 52.757 36.289 17.165 88.911 35.592-52.623 98.666-64.799 88.911-17.165 9.755-47.634 62.965-11.645 75.007 50.732-12.042-62.377 23.947-115.587 50.732-75.007-26.785-40.58 36.289-52.757 88.911-17.165-52.623-35.592-64.799-98.666-17.165-88.911z" fill="#ffe993"/><path d="M257.089 431.301a.998.998 0 0 1-.98-.811c-8.147-42.201-34.996-71.73-53.997-71.837h-.101c-9.432 0-16.158 7.494-18.948 21.116a1 1 0 0 1-1.959-.401c2.799-13.67-.474-23.225-9.215-26.903-17.507-7.368-53.808 9.226-77.889 44.829a1 1 0 1 1-1.656-1.121c24.079-35.602 25.974-75.467 12.614-88.978-6.67-6.744-16.757-6.225-28.4 1.462a1 1 0 0 1-1.102-1.67c11.646-7.687 16.088-16.757 12.508-25.539-7.172-17.595-44.568-31.524-86.774-23.376a.999.999 0 1 1-.379-1.963c42.2-8.147 71.729-34.996 71.836-53.997.054-9.484-7.445-16.249-21.115-19.048a1 1 0 0 1 .401-1.96c13.67 2.799 23.226-.473 26.904-9.215 7.37-17.514-9.229-53.809-44.83-77.888a1 1 0 0 1 1.122-1.657c35.603 24.08 75.468 25.974 88.979 12.614 6.744-6.668 6.226-16.754-1.462-28.4a.998.998 0 0 1 .284-1.386 1.001 1.001 0 0 1 1.386.284c7.688 11.646 16.758 16.088 25.539 12.508 17.596-7.172 31.523-44.573 23.376-86.774a1 1 0 0 1 1.963-.379c8.148 42.201 34.997 71.73 53.998 71.837h.101c9.433 0 16.158-7.493 18.948-21.116a1 1 0 0 1 1.959.402c-2.799 13.67.474 23.224 9.215 26.903 17.513 7.37 53.809-9.228 77.889-44.829a1 1 0 1 1 1.656 1.121c-24.079 35.602-25.974 75.467-12.614 88.978 6.668 6.744 16.755 6.225 28.4-1.462a1 1 0 0 1 1.102 1.67c-11.646 7.687-16.088 16.757-12.508 25.539 7.173 17.596 44.573 31.523 86.774 23.376a1.004 1.004 0 0 1 1.19.981 1 1 0 0 1-.811.982c-42.201 8.147-71.729 34.996-71.837 53.997-.053 9.484 7.445 16.249 21.115 19.048a1 1 0 0 1-.401 1.96c-13.669-2.798-23.225.472-26.903 9.215-7.37 17.514 9.228 53.809 44.829 77.889a1 1 0 0 1-1.122 1.657c-35.601-24.08-75.467-25.974-88.978-12.614-6.744 6.668-6.226 16.754 1.462 28.4a.998.998 0 0 1-.284 1.386 1 1 0 0 1-1.386-.284c-7.687-11.646-16.759-16.088-25.539-12.508-17.596 7.172-31.523 44.573-23.377 86.774a1 1 0 0 1-.982 1.189zm-55.082-74.648h.115c17.262.098 40.667 23.113 51.881 57.656-2.451-36.236 10.705-66.309 26.69-72.825 7.38-3.009 14.861-1.051 21.646 5.502-3.357-8.814-2.22-16.461 3.45-22.066 12.273-12.138 45.1-12.413 77.453 4.083-27.354-23.89-39.316-54.457-32.621-70.368 3.093-7.348 9.767-11.252 19.196-11.416-8.606-3.857-13.209-10.07-13.164-18.042.098-17.262 23.112-40.667 57.656-51.881-36.22 2.451-66.31-10.705-72.824-26.69-3.01-7.383-1.051-14.862 5.502-21.646-8.814 3.359-16.461 2.219-22.066-3.449-12.137-12.275-12.413-45.099 4.084-77.454-23.89 27.355-54.461 39.318-70.368 32.622-7.349-3.093-11.252-9.766-11.416-19.197-3.858 8.606-10.104 13.223-18.042 13.164-17.262-.097-40.667-23.112-51.882-57.656 2.451 36.235-10.704 66.309-26.689 72.825-7.38 3.008-14.861 1.052-21.646-5.502 3.357 8.814 2.22 16.46-3.45 22.066-12.274 12.137-45.099 12.413-77.454-4.083 27.355 23.889 39.317 54.457 32.621 70.367-3.092 7.349-9.766 11.252-19.196 11.416 8.606 3.858 13.209 10.07 13.164 18.043-.097 17.262-23.112 40.667-57.655 51.881 36.226-2.45 66.309 10.705 72.824 26.69 3.01 7.383 1.051 14.862-5.502 21.646 8.813-3.359 16.461-2.219 22.066 3.449 12.137 12.275 12.413 45.099-4.084 77.454 23.89-27.355 54.455-39.318 70.368-32.622 7.349 3.093 11.252 9.767 11.416 19.197 3.838-8.564 10.011-13.165 17.927-13.165z" fill="#112c41"/></svg></g><g transform="translate(1006.0 777.0) rotate(0.0 320.5 418.5) scale(0.9986508087357797 0.99950084665006)"><svg width="641.866" height="837.418" viewBox="0 0 641.866 837.418"><path d="M268.949 640.189a832.228 832.228 0 0 1-20.296-33.431l-.118-.183c-.04-.075-.087-.143-.119-.198-6.659-11.569-13.136-22.793-18.71-32.641 0 0-78.743 49.454-124.835 70.855 6.467 10.816 11.875 19.731 19.187 30.888a14764.547 14764.547 0 0 0 23.35 35.532l121.542-70.823z" fill="#ffd6c0"/><path d="m212.137 574.521 43.272 73.744c4.695.246 13.793.818 16.934.455-17.11-29.534-45.768-79.059-45.768-79.059z" fill="#f5b9ab"/><path d="M147.408 712.012a.998.998 0 0 1-.836-.45c-.107-.163-10.928-16.569-23.352-35.534-7.594-11.587-13.192-20.86-19.209-30.923a.999.999 0 0 1 .437-1.42c45.508-21.13 123.938-70.301 124.724-70.795a1 1 0 0 1 1.402.354c4.871 8.606 10.375 18.165 16.203 28.286l2.503 4.349c.056.088.098.155.136.227l.072.105c6.806 11.802 13.248 22.413 20.303 33.44a1.003 1.003 0 0 1-.339 1.403L147.91 711.877a.999.999 0 0 1-.503.136zm-41.111-66.982c5.792 9.681 11.263 18.713 18.597 29.902a14861.412 14861.412 0 0 0 22.828 34.739l119.824-69.822c-6.854-10.74-13.147-21.123-19.759-32.592l-.035-.052a13.66 13.66 0 0 1-.199-.321l-2.509-4.358c-5.625-9.769-10.949-19.015-15.695-27.389-8.763 5.472-79.945 49.702-123.053 69.891z" fill="#112c41"/><path d="M135.16 812.797c49.699-12.131 103.323-47.831 143.598-85.286 11.739-10.922 22.348-21.982 31.389-32.661 0 0-26.337-33.681-41.198-54.66l-9.801 5.748s-111.4 64.974-111.741 65.075c-5.599 9.678-29.457 56.159-12.247 101.786z" fill="#b2b0f7"/><path d="M135.16 813.797c-.408 0-.786-.251-.936-.647-17.681-46.874 7.158-93.724 12.317-102.639a.998.998 0 0 1 .43-.399c2.087-1.124 110.575-64.398 111.673-65.038l9.799-5.746a1 1 0 0 1 1.322.285c14.677 20.72 40.906 54.286 41.17 54.622.292.373.281.9-.024 1.262-9.171 10.832-19.76 21.85-31.472 32.747-45.98 42.762-99.828 74.734-144.042 85.526a1.018 1.018 0 0 1-.237.029zm12.99-102.072c-3.607 6.297-29.26 53.71-12.363 99.887 43.734-10.918 96.848-42.573 142.29-84.834 11.431-10.636 21.783-21.383 30.781-31.956-3.669-4.706-26.545-34.113-40.194-53.307l-9.01 5.284c-94.724 55.248-109.195 63.627-111.504 64.926z" fill="#360815"/><path d="M310.147 694.849s-26.337-33.681-41.198-54.66l-10.725 9.218c10.534 19.85 27.464 50.614 28.12 71.121.007.215 14.762-15 23.803-25.679z" fill="#9797f7"/><path d="M256.723 749.189c-.83 0-1.643-.414-2.118-1.169-9.298-14.773-13.572-34.682-11.728-54.622 1.988-21.482 10.808-39.886 24.835-51.823a2.5 2.5 0 1 1 3.24 3.808c-27.969 23.801-29.464 72.412-12.115 99.974a2.501 2.501 0 0 1-2.114 3.833z" fill="#fff"/><path d="M135.16 813.797c-.408 0-.786-.251-.936-.647-17.681-46.874 7.158-93.724 12.317-102.639a.998.998 0 0 1 .43-.399c2.087-1.124 110.575-64.398 111.673-65.038l9.799-5.746a1 1 0 0 1 1.322.285c14.677 20.72 40.906 54.286 41.17 54.622.292.373.281.9-.024 1.262-9.171 10.832-19.76 21.85-31.472 32.747-45.98 42.762-99.828 74.734-144.042 85.526a1.018 1.018 0 0 1-.237.029zm12.99-102.072c-3.607 6.297-29.26 53.71-12.363 99.887 43.734-10.918 96.848-42.573 142.29-84.834 11.431-10.636 21.783-21.383 30.781-31.956-3.669-4.706-26.545-34.113-40.194-53.307l-9.01 5.284c-94.724 55.248-109.195 63.627-111.504 64.926z" fill="#112c41"/><path d="M144.767 833.864c.85 1.352 2.075 2.263 3.847 2.44 32.263 3.214 136.313-62.531 174.428-113.083 3.265-4.33 2.535-7.424.883-10.308l-13.779-18.064c-40.08 47.314-110.804 102.278-174.987 117.948 2.657 7.56 5.766 14.961 9.606 21.067z" fill="#fff"/><path d="M150.933 837.413c-.849 0-1.654-.038-2.419-.114-1.959-.195-3.505-1.172-4.595-2.902-3.397-5.403-6.572-12.359-9.703-21.268a1 1 0 0 1 .706-1.303c64.812-15.823 135.868-72.064 174.462-117.623.195-.231.5-.359.788-.353.303.008.586.152.77.393l13.778 18.064c.026.035.051.072.073.11 1.632 2.851 2.795 6.436-.953 11.407-17.722 23.505-51.242 52.268-89.667 76.943-35.61 22.868-67.021 36.647-83.24 36.647zm-5.32-4.081c.754 1.198 1.768 1.845 3.1 1.977 30.591 3.046 134.186-60.506 173.53-112.69 2.853-3.782 2.409-6.4.847-9.153l-12.984-17.024c-38.759 45.374-109.13 100.89-173.634 117.06 2.961 8.27 5.956 14.764 9.142 19.829z" fill="#112c41"/><path d="M268.946 640.186c-31.132 29.548-83.917 59.138-121.539 70.826 0 0-8.805-13.49-19.868-30.216-.385-.579-.769-1.168-1.153-1.757s-.768-1.178-1.162-1.768l-1.169-1.789c34.652-11.352 84.508-40.35 124.204-69.344 0 0 .05.086.153.239.034.054.086.121.118.195.043.065.087.121.119.185a834.856 834.856 0 0 0 20.296 33.428z" fill="#fff"/><path d="M147.407 712.012a1 1 0 0 1-.837-.453c-.089-.135-8.932-13.679-19.865-30.211-.386-.579-.771-1.171-1.157-1.762-.382-.586-.764-1.172-1.155-1.758l-1.175-1.796a.998.998 0 0 1 .526-1.498c32.146-10.531 80.789-37.694 123.927-69.202a.998.998 0 0 1 1.456.308c.006.01.045.074.115.179.063.094.112.173.152.246.066.098.111.169.149.245a831.521 831.521 0 0 0 20.246 33.338c.258.404.193.934-.154 1.264-29.623 28.116-82.042 58.663-121.931 71.055a1.02 1.02 0 0 1-.297.045zm-21.805-35.989.46.703c.39.584.775 1.176 1.161 1.768.382.586.764 1.172 1.147 1.748a6848.003 6848.003 0 0 1 19.46 29.59c39.273-12.37 90.473-42.198 119.827-69.804a831.822 831.822 0 0 1-19.686-32.442c-42.523 30.947-90.264 57.639-122.37 68.437z" fill="#112c41"/><circle cx="173.172" cy="728.143" fill="#ffe993" r="8.5"/><path d="M173.46 731.08c-13.001 8.075-31.244 9.898-37.588 8.57a2.832 2.832 0 0 1 1.16-5.544c4.871 1.019 22.358-.58 34.185-8.313a2.832 2.832 0 1 1 3.103 4.739c-.283.186-.571.369-.859.548z" fill="#fff"/><path d="M140.808 741.048c-2.092 0-3.849-.149-5.142-.419a3.81 3.81 0 0 1-2.423-1.654 3.806 3.806 0 0 1-.543-2.882 3.838 3.838 0 0 1 4.535-2.966c4.744.992 21.838-.59 33.434-8.171a3.84 3.84 0 0 1 5.305 1.107 3.837 3.837 0 0 1-1.107 5.305c-.289.19-.584.377-.88.561-10.751 6.678-24.707 9.119-33.179 9.119zm-4.356-6.003c-.849 0-1.613.594-1.794 1.457-.1.479-.008.968.261 1.378.268.41.679.69 1.158.791 6.068 1.271 24.082-.508 36.855-8.441.282-.175.563-.354.838-.535a1.833 1.833 0 0 0 .53-2.537 1.836 1.836 0 0 0-2.537-.528c-12.052 7.879-29.95 9.497-34.937 8.454a1.852 1.852 0 0 0-.375-.039z" fill="#112c41"/><circle cx="170.032" cy="754.839" fill="#ffe993" r="8.5"/><path d="M170.232 757.783c-13.234 7.686-33.469 7.867-39.772 6.352a2.833 2.833 0 0 1 1.324-5.508c4.838 1.163 24.312 1.183 36.362-6.195a2.832 2.832 0 1 1 2.961 4.829c-.289.177-.581.352-.875.523z" fill="#fff"/><path d="M139.21 765.86c-3.97 0-7.171-.318-8.982-.753a3.838 3.838 0 0 1-2.832-4.622 3.84 3.84 0 0 1 4.622-2.831c4.446 1.068 23.606 1.272 35.606-6.076a3.84 3.84 0 0 1 5.27 1.264 3.837 3.837 0 0 1-1.264 5.27c-.296.182-.595.36-.896.535-9.612 5.582-22.535 7.213-31.524 7.213zm-8.087-6.312c-.827 0-1.581.565-1.782 1.405a1.834 1.834 0 0 0 1.354 2.209c5.693 1.369 25.665 1.521 39.036-6.244.287-.167.572-.337.854-.51a1.836 1.836 0 0 0 .604-2.52 1.836 1.836 0 0 0-2.521-.603c-12.492 7.649-32.479 7.43-37.117 6.314a1.86 1.86 0 0 0-.428-.051z" fill="#112c41"/><path d="M543.902 414.54a833.801 833.801 0 0 1-37.613-10.713l-.212-.054c-.081-.028-.161-.045-.222-.064-12.749-3.955-25.13-7.781-35.913-11.213 0 0-24.114 89.804-43.36 136.836 12.097 3.534 22.124 6.394 35.072 9.603a14746.344 14746.344 0 0 0 41.281 10.178l40.968-134.573z" fill="#ffd6c0"/><path d="m457.593 405.017 81.872 24.651c3.61-3.012 10.67-8.778 12.726-11.181a231042.166 231042.166 0 0 1-87.316-26.851z" fill="#f5b9ab"/><path d="M502.935 550.113a.969.969 0 0 1-.238-.029c-.19-.047-19.279-4.719-41.285-10.179-13.438-3.331-23.852-6.325-35.11-9.614a.998.998 0 0 1-.645-1.339c19.002-46.436 43.079-135.819 43.32-136.717a.998.998 0 0 1 1.269-.693c9.393 2.989 19.892 6.245 31.008 9.692l4.897 1.519c.103.027.176.047.249.073l.137.031c13.004 4.024 24.942 7.424 37.616 10.714a.999.999 0 0 1 .706 1.259l-40.968 134.573a1.001 1.001 0 0 1-.956.709zm-75.01-21.43c10.834 3.161 20.989 6.065 33.968 9.282 19.264 4.779 36.291 8.955 40.36 9.952l40.389-132.672a828.932 828.932 0 0 1-36.649-10.463l-.164-.04-.155-.045a15.247 15.247 0 0 1-.107-.03l-4.905-1.521c-10.729-3.327-20.883-6.475-30.026-9.379-2.705 9.971-24.827 90.804-42.709 134.917z" fill="#112c41"/><path d="M563.163 632.076c28.195-42.688 43.241-105.326 47.306-160.176 1.181-15.991 1.441-31.314.809-45.292 0 0-42.213-6.79-67.375-12.069l-3.279 10.879s-37.508 123.389-37.689 123.695c2.474 10.903 16.585 61.208 60.228 82.963z" fill="#b2b0f7"/><path d="M563.162 633.076a.995.995 0 0 1-.445-.105c-44.833-22.348-58.478-73.591-60.758-83.637-.044-.196-.028-.4.044-.585.763-2.23 37.294-122.406 37.663-123.622l3.279-10.877a1.005 1.005 0 0 1 1.162-.69c24.852 5.214 66.907 11.992 67.329 12.06a1 1 0 0 1 .84.942c.641 14.173.368 29.452-.811 45.411-4.642 62.621-22.387 122.678-47.469 160.653a.998.998 0 0 1-.835.449zm-59.197-83.945c1.637 7.07 15.067 59.28 58.853 81.65 24.645-37.742 42.067-97.067 46.654-158.955 1.149-15.576 1.433-30.495.843-44.361-5.891-.956-42.66-6.965-65.719-11.759l-3.016 10.001c-31.892 104.918-36.807 120.902-37.615 123.424z" fill="#360815"/><path d="M611.277 426.609s-42.213-6.79-67.375-12.069l-1.597 14.052c21.221 7.393 54.553 18.44 68.978 33.031.151.153.626-21.037-.006-35.014z" fill="#9797f7"/><path d="M607.35 503.448c-.214 0-.432-.028-.647-.086-16.863-4.51-33.535-16.202-45.74-32.078-13.148-17.104-19.195-36.596-17.025-54.886a2.49 2.49 0 0 1 2.777-2.188 2.5 2.5 0 0 1 2.188 2.777c-4.325 36.469 27.63 73.13 59.092 81.545a2.5 2.5 0 0 1-.643 4.916z" fill="#fff"/><path d="M563.162 633.076a.995.995 0 0 1-.445-.105c-44.833-22.348-58.478-73.591-60.758-83.637-.044-.196-.028-.4.044-.585.763-2.23 37.294-122.406 37.663-123.622l3.279-10.877a1.005 1.005 0 0 1 1.162-.69c24.852 5.214 66.907 11.992 67.329 12.06a1 1 0 0 1 .84.942c.641 14.173.368 29.452-.811 45.411-4.642 62.621-22.387 122.678-47.469 160.653a.998.998 0 0 1-.835.449zm-59.197-83.945c1.637 7.07 15.067 59.28 58.853 81.65 24.645-37.742 42.067-97.067 46.654-158.955 1.149-15.576 1.433-30.495.843-44.361-5.891-.956-42.66-6.965-65.719-11.759l-3.016 10.001c-31.892 104.918-36.807 120.902-37.615 123.424z" fill="#112c41"/><path d="M584.531 640.992c1.542.413 3.061.249 4.48-.827 25.843-19.58 57.437-138.537 51.013-201.521-.55-5.395-3.189-7.167-6.361-8.159l-22.386-3.877c2.782 61.946-11.705 150.337-48.114 205.468 7.089 3.736 14.4 7.05 21.368 8.916z" fill="#fff"/><path d="M586.038 642.201c-.571 0-1.16-.081-1.766-.243-6.166-1.651-13.224-4.594-21.576-8.997a.998.998 0 0 1-.367-1.435c36.765-55.671 50.627-145.224 47.949-204.872a.995.995 0 0 1 .338-.795c.229-.2.534-.286.832-.235l22.385 3.877c.043.008.086.018.128.031 3.136.98 6.426 2.818 7.058 9.012 2.986 29.285-2.035 73.168-13.434 117.388-11.116 43.126-25.665 75.708-37.971 85.031-1.088.825-2.286 1.239-3.576 1.239zm-21.434-10.499c7.793 4.05 14.405 6.776 20.186 8.324 1.368.367 2.551.151 3.617-.658 24.479-18.548 57.253-135.604 50.621-200.623-.48-4.713-2.585-6.33-5.603-7.287l-21.097-3.654c2.432 59.624-11.422 148.18-47.725 203.896z" fill="#112c41"/><path d="M543.898 414.54c-2.738 42.834-21.324 100.423-40.963 134.574 0 0-15.629-3.905-35.114-8.647-.676-.163-1.358-.334-2.04-.504-.682-.171-1.364-.341-2.054-.506l-2.074-.517c17.69-31.886 34.531-87.048 43.925-135.3 0 0 .096.029.275.071.062.017.146.03.219.063.076.019.146.03.213.055a834.12 834.12 0 0 0 37.612 10.711z" fill="#fff"/><path d="M502.934 550.113c-.08 0-.162-.01-.242-.03-.156-.039-15.85-3.958-35.108-8.646-.664-.16-1.337-.328-2.009-.497-.747-.187-1.41-.353-2.08-.513l-2.083-.519a.999.999 0 0 1-.633-1.456c16.41-29.578 33.609-82.571 43.817-135.006a1.002 1.002 0 0 1 1.274-.765c.011.003.085.025.213.055.107.025.197.049.277.076.114.026.194.048.272.077 12.896 3.989 24.832 7.389 37.516 10.681a1 1 0 0 1 .747 1.032c-2.604 40.759-20.271 98.8-41.094 135.008a1.003 1.003 0 0 1-.867.502zm-39.779-11.831.815.203c.667.159 1.336.327 2.007.495.75.188 1.416.355 2.077.514a6745.116 6745.116 0 0 1 34.388 8.466c20.388-35.774 37.648-92.458 40.402-132.661a828.922 828.922 0 0 1-36.493-10.404c-10.139 51.605-26.996 103.639-43.196 133.387z" fill="#112c41"/><circle cx="533.476" cy="544.156" fill="#ffe993" r="8.5"/><path d="M535.684 546.114c-4.043 14.761-16.18 28.502-21.735 31.842a2.832 2.832 0 1 1-2.919-4.855c4.264-2.564 16-15.628 19.414-29.339a2.832 2.832 0 1 1 5.497 1.365c-.081.329-.167.659-.257.986z" fill="#fff"/><path d="M512.496 579.363c-.311 0-.623-.038-.933-.115a3.806 3.806 0 0 1-2.358-1.744 3.837 3.837 0 0 1 1.309-5.259c4.152-2.497 15.612-15.281 18.96-28.724a3.84 3.84 0 0 1 4.643-2.795c.993.247 1.831.865 2.359 1.742s.683 1.907.437 2.9c-.084.337-.172.674-.264 1.009-4.168 15.22-16.469 28.998-22.184 32.435a3.813 3.813 0 0 1-1.969.55zm20.697-36.75c-.821 0-1.571.558-1.778 1.392-3.48 13.973-15.506 27.329-19.87 29.954a1.835 1.835 0 0 0-.626 2.514c.253.42.653.716 1.128.834a1.82 1.82 0 0 0 1.387-.208c5.317-3.198 17.314-16.748 21.285-31.249.088-.32.172-.643.252-.964a1.821 1.821 0 0 0-.208-1.386 1.822 1.822 0 0 0-1.569-.887z" fill="#112c41"/><circle cx="549.324" cy="565.867" fill="#ffe993" r="8.5"/><path d="M551.473 567.89c-4.478 14.634-19.193 28.526-24.844 31.7a2.834 2.834 0 0 1-2.775-4.939c4.339-2.437 18.632-15.663 22.451-29.267a2.836 2.836 0 0 1 3.491-1.964 2.833 2.833 0 0 1 1.964 3.491c-.091.326-.187.653-.286.978z" fill="#fff"/><path d="M525.249 600.951a3.837 3.837 0 0 1-3.349-1.954 3.837 3.837 0 0 1 1.464-5.218c3.987-2.239 18.175-15.118 21.979-28.665.572-2.034 2.688-3.226 4.723-2.656s3.228 2.689 2.657 4.723c-.094.334-.191.668-.292.999v.002c-4.69 15.323-20.008 29.3-25.313 32.279a3.806 3.806 0 0 1-1.869.49zm23.785-36.636a1.84 1.84 0 0 0-1.766 1.339c-3.96 14.104-18.764 27.531-22.925 29.868a1.833 1.833 0 0 0 1.796 3.195c5.104-2.867 19.853-16.336 24.378-31.12a45.5 45.5 0 0 0 .279-.957 1.834 1.834 0 0 0-1.763-2.325z" fill="#112c41"/><path d="M476.766 383.662c-.69 2.6-1.48 5.58-2.36 8.86-5.55 20.69-14.44 52.88-20.85 71.48-10 29-27 65-27 65s-60.59-20.2-111-58c-68-51-114-118-121-238-.02.09-.05.19-.07.28-14.97 60.87-26.91 108.82-12.93 170.72 15.07 66.76 47.97 130.72 61.26 154.87 3.14 5.7 1.23 12.86-4.33 16.23-3.07 1.86-6.73 4.08-10.8 6.55-15.05 9.11-35.7 21.67-53.13 32.35-31 19-66.14 35.83-66.14 35.83s-67.86-107.83-93.86-222.83-18-239.999 54-335.999c44.74-59.66 99.87-90.211 156.6-89.99 34.56.12 69.71 11.66 103.47 34.99 83.93 58 59.89 176 56.93 211-5.62 66.56 34.45 104.12 83.98 122.56 5.68 2.12 8.78 8.24 7.23 14.1z" fill="#ffa9dc"/><path d="M476.766 383.662c-.69 2.6-1.48 5.58-2.36 8.86v-.03c-.14-6.5-30.684-21.334-59.85-38.49-17-10-41-43-45-75s14-86-10-166c-18.595-61.982-97.08-98.7-134.4-111.989 34.56.12 69.71 11.66 103.47 34.99 83.93 58 59.89 176 56.93 211-5.62 66.56 34.45 104.12 83.98 122.56 5.68 2.12 8.78 8.24 7.23 14.1zm-238.28 191.44c-3.07 1.86-6.73 4.08-10.8 6.55 0-.01.01-.01.01-.02 6.86-15.63-11.594-43.954-31.14-88.63-21-48-35-84-38-149-3.032-65.695 33-171 33-171 7 12 3 37 3 37l-.07 23.28c-14.97 60.87-26.91 108.82-12.93 170.72 15.07 66.76 47.97 130.72 61.26 154.87 3.14 5.7 1.23 12.86-4.33 16.23z" fill="#ff90d8"/><g fill="#112c41"><path d="M108.415 650.837a1 1 0 0 1-.848-.468c-.679-1.08-68.247-109.296-93.987-223.147-13.882-61.4-17.168-120.44-9.766-175.478 8.273-61.519 29.787-115.802 63.941-161.342 35.445-47.259 78.387-77.34 124.186-86.99 45.765-9.643 93.226 1.341 137.248 31.764 32.674 22.58 52.819 56.983 59.875 102.255 5.839 37.461 1.492 74.53-1.105 96.677-.596 5.074-1.109 9.456-1.407 12.978-6.129 72.526 41.934 106.126 83.332 121.542 6.171 2.298 9.543 8.871 7.845 15.29-5.538 20.933-15.919 59.216-23.228 80.409-9.903 28.719-26.871 64.741-27.041 65.101a1.003 1.003 0 0 1-1.221.522c-.607-.202-61.325-20.68-111.283-58.149-37.608-28.206-64.189-57.899-83.652-93.445-21.211-38.738-33.443-84.202-37.327-138.811-14.226 57.937-24.908 104.616-11.445 164.236 15.022 66.526 47.775 130.285 61.16 154.61a13.098 13.098 0 0 1-4.69 17.562c-14.371 8.704-41.785 25.333-63.923 38.901-30.688 18.809-65.88 35.715-66.232 35.884a.99.99 0 0 1-.431.098zM224.933 2.283c-56.47 0-111.404 30.421-155.578 89.319-64.217 85.625-83.333 204.66-53.824 335.18 24.528 108.492 87.178 211.896 93.258 221.763 5.434-2.636 37.227-18.223 65.244-35.395 22.142-13.571 49.56-30.201 63.932-38.907a11.103 11.103 0 0 0 3.975-14.887c-13.426-24.399-46.281-88.358-61.359-155.133-13.959-61.818-2.191-109.666 12.706-170.244l.299-1.215a1 1 0 0 1 1.969.181c6.193 106.175 43.389 179.348 120.602 237.258 46.495 34.871 102.383 54.958 109.876 57.563 2.568-5.502 17.536-37.865 26.579-64.089 7.287-21.133 17.654-59.362 23.185-80.269 1.435-5.42-1.407-10.968-6.608-12.905-27.385-10.197-48.619-24.853-63.113-43.561-16.918-21.836-24.156-48.759-21.514-80.023.3-3.554.815-7.952 1.413-13.043 5.098-43.466 17.036-145.255-57.92-197.054C294.522 13.65 259.437 2.283 224.933 2.283z"/><path d="M195.555 248.003a1 1 0 0 1-.984-.829c-1.64-9.43-1.112-21.023-.602-32.234.749-16.427 1.522-33.413-4.298-44.472a1 1 0 0 1 1.77-.932c6.073 11.539 5.287 28.801 4.526 45.494-.506 11.104-1.028 22.586.574 31.8a1 1 0 0 1-.986 1.172z"/></g></svg></g><g transform="translate(740.0 822.0) rotate(7.394672955292779 -259.5 395.5) scale(-0.9988837137688132 0.9989227798593932)"><svg width="519.58" height="791.853" viewBox="0 0 519.58 791.853"><path d="M458.055 588.437a836.397 836.397 0 0 1-22.092-32.273l-.129-.176c-.044-.073-.1-.138-.13-.191-7.281-11.188-14.361-22.041-20.465-31.57 0 0-76.648 53.91-121.5 77.8 7.048 10.447 13.66 18.824 21.57 29.565a14243.28 14243.28 0 0 0 25.256 34.2z" fill="#ffd6c0"/><path d="m397.74 525.969 47.236 71.271c4.7-.012 13.817.063 16.934-.472-18.7-28.555-50.019-76.44-50.019-76.44z" fill="#f5b9ab"/><path d="M340.563 666.792a1 1 0 0 1-.8-.4c-.116-.158-11.817-15.948-25.258-34.206-2.353-3.2-4.592-6.183-6.761-9.077-5.075-6.77-9.869-13.165-14.832-20.522a1 1 0 0 1 .359-1.441c44.286-23.585 120.631-77.194 121.4-77.733a1 1 0 0 1 1.418.279c5.308 8.288 11.3 17.487 17.636 27.225l2.824 4.338c.062.088.105.149.145.215l.085.111c7.435 11.4 14.446 21.648 22.094 32.276a1 1 0 0 1-.262 1.419l-117.499 77.351a.99.99 0 0 1-.549.165zm-45.376-64.409c4.717 6.934 9.306 13.056 14.153 19.523 2.173 2.9 4.415 5.889 6.772 9.09 11.766 15.983 22.2 30.074 24.691 33.441l115.832-76.263c-7.431-10.352-14.283-20.375-21.51-31.464l-.1-.135-.09-.134-.066-.094-2.827-4.347c-6.119-9.4-11.91-18.3-17.082-26.36-8.493 5.945-77.81 54.22-119.773 76.743z" fill="#112c41"/><path d="M333.894 768.1c48.963-14.828 100.556-53.4 138.725-93a384.948 384.948 0 0 0 29.558-34.327s-28.137-32.192-44.122-52.328l-9.473 6.274S340.9 665.673 340.563 665.792c-5.063 9.969-26.346 57.684-6.669 102.308z" fill="#ffa9dc"/><path d="M502.177 640.765s-28.137-32.192-44.122-52.328l-10.206 9.79c11.6 19.245 30.187 49.038 31.963 69.479.019.214 13.921-15.784 22.365-26.941z" fill="#ff90d8"/><path d="M333.894 769.1a1 1 0 0 1-.915-.6c-20.214-45.836 2.028-93.974 6.692-103.159a1 1 0 0 1 .408-.422c2.021-1.235 106.892-70.342 107.953-71.041l9.47-6.273a1 1 0 0 1 1.336.212c15.787 19.887 43.81 51.97 44.091 52.292a1 1 0 0 1 .045 1.261 384.606 384.606 0 0 1-29.635 34.418c-43.577 45.209-95.6 80.075-139.155 93.266a1.009 1.009 0 0 1-.29.046zm7.449-102.63c-3.257 6.485-26.281 55.229-6.888 100.412 43.072-13.29 94.376-47.8 137.444-92.479a384.089 384.089 0 0 0 28.989-33.589c-3.921-4.5-28.368-32.612-43.046-51.033l-8.708 5.769c-91.571 60.338-105.559 69.492-107.791 70.915z" fill="#112c41"/><path d="M412.277 730.636a2.5 2.5 0 0 1-2.423-1.893c-4.608-18.422-.154-36.962 14.893-61.991 14.516-24.146 14.914-40.476 1.521-62.4a2.5 2.5 0 0 1 4.267-2.606c14.375 23.533 13.968 41.85-1.5 67.584-17.975 29.9-17.329 46.2-14.328 58.2a2.5 2.5 0 0 1-2.427 3.107z" fill="#fff"/><path d="M344.637 788.606a4.931 4.931 0 0 0 3.974 2.226C381 792.279 481.306 720.948 516.6 668.39c3.024-4.5 2.126-7.551.319-10.341l-14.744-17.284C464.741 690.2 397.125 748.943 333.894 768.1c3.066 7.4 6.574 14.618 10.743 20.506z" fill="#fff"/><path d="M349.561 791.853c-.34 0-.67-.008-.994-.022a5.914 5.914 0 0 1-4.747-2.648c-3.687-5.208-7.237-11.981-10.85-20.706a1 1 0 0 1 .634-1.339c63.851-19.34 131.729-79.378 167.775-126.977a1 1 0 0 1 1.558-.045l14.745 17.284a.892.892 0 0 1 .078.105c1.787 2.758 3.144 6.274-.328 11.443-16.411 24.437-48.31 54.989-85.33 81.726-35.343 25.526-66.765 41.179-82.541 41.179zm-4.108-3.825a3.953 3.953 0 0 0 3.2 1.8c30.653 1.353 130.679-67.745 167.116-122 2.641-3.932 2.055-6.522.345-9.185l-13.9-16.289C466 689.781 398.766 749.058 335.242 768.728a102.108 102.108 0 0 0 10.211 19.3z" fill="#112c41"/><path d="M458.052 588.433c-29.472 31.2-80.562 63.634-117.489 77.359 0 0-9.53-12.989-21.49-29.085-.416-.557-.831-1.124-1.247-1.692s-.831-1.133-1.256-1.7-.84-1.145-1.265-1.722c33.98-13.228 82.178-44.906 120.231-76.026 0 0 .055.084.166.231a1.4 1.4 0 0 1 .128.188c.047.064.093.117.13.179a833.096 833.096 0 0 0 22.092 32.268z" fill="#fff"/><path d="M340.563 666.792a1 1 0 0 1-.807-.408c-.095-.13-9.664-13.171-21.486-29.081-.393-.526-.786-1.063-1.181-1.6l-.069-.1c-.434-.592-.837-1.142-1.25-1.693l-1.271-1.73a1 1 0 0 1 .443-1.524c31.522-12.271 78.609-42.051 119.961-75.868a1 1 0 0 1 1.468.225c.007.009.05.073.129.178.066.088.12.163.165.236a2.1 2.1 0 0 1 .16.231 828.356 828.356 0 0 0 22.038 32.187 1 1 0 0 1-.084 1.271c-28.044 29.692-78.716 63.057-117.868 77.609a.985.985 0 0 1-.348.067zm-23.684-34.746.5.677c.411.548.819 1.1 1.226 1.66l.1.136c.391.533.781 1.066 1.172 1.589a6720.459 6720.459 0 0 1 21.047 28.483c38.539-14.5 88.032-47.077 115.836-76.246a825.924 825.924 0 0 1-21.428-31.318c-40.774 33.226-86.981 62.483-118.453 75.019z" fill="#112c41"/><circle cx="367.225" cy="681.491" fill="#ffe993" r="8.5"/><path d="M367.673 684.408c-12.54 8.773-30.657 11.59-37.064 10.61a2.832 2.832 0 0 1 .855-5.6c4.919.751 22.294-1.8 33.68-10.168a2.832 2.832 0 1 1 3.357 4.562c-.273.203-.55.401-.828.596z" fill="#fff"/><path d="M333.547 696.2a20.885 20.885 0 0 1-3.089-.2 3.832 3.832 0 0 1 1.157-7.577c4.787.732 21.774-1.782 32.937-9.985a3.832 3.832 0 1 1 4.541 6.174c-.279.2-.562.409-.847.609-11.266 7.888-26.582 10.979-34.699 10.979zm-2.511-5.818a1.832 1.832 0 0 0-.276 3.644c6.134.938 24.02-1.823 36.34-10.441q.408-.285.808-.58a1.832 1.832 0 1 0-2.172-2.951c-11.6 8.526-29.386 11.119-34.423 10.35a1.855 1.855 0 0 0-.277-.018z" fill="#112c41"/><circle cx="365.547" cy="708.318" fill="#ffe993" r="8.5"/><path d="M365.929 711.571c-12.93 8.187-33.144 9.142-39.5 7.87a2.833 2.833 0 1 1 1.112-5.555c4.879.977 24.339.252 36.1-7.582a2.832 2.832 0 0 1 3.143 4.712c-.284.184-.568.374-.855.555z" fill="#fff"/><path d="M332.6 720.882a35.184 35.184 0 0 1-6.367-.461 3.832 3.832 0 0 1 1.5-7.515c4.484.9 23.638.367 35.347-7.434a3.832 3.832 0 1 1 4.253 6.375q-.432.289-.874.569c-10.351 6.557-24.916 8.466-33.859 8.466zm-5.614-6.051a1.832 1.832 0 0 0-.36 3.629c5.743 1.15 25.705.537 38.768-7.734q.422-.266.834-.542a1.832 1.832 0 1 0-2.034-3.048c-12.191 8.122-32.17 8.668-36.849 7.731a1.837 1.837 0 0 0-.359-.036z" fill="#112c41"/><path d="M246.055 421.437a836.397 836.397 0 0 1-22.092-32.273l-.129-.176c-.044-.073-.095-.138-.13-.191-7.281-11.188-14.361-22.041-20.465-31.57 0 0-76.648 53.91-121.5 77.8 7.048 10.447 13.66 18.824 21.57 29.565 13.6 18.469 25.256 34.2 25.256 34.2z" fill="#ffd6c0"/><path d="m185.74 358.969 47.236 71.271c4.7-.012 13.817.063 16.934-.472-18.7-28.555-50.019-76.44-50.019-76.44z" fill="#f5b9ab"/><path d="M128.563 499.792a1 1 0 0 1-.8-.4c-.116-.158-11.817-15.948-25.258-34.206-2.353-3.2-4.592-6.183-6.761-9.077-5.075-6.77-9.869-13.165-14.832-20.522a1 1 0 0 1 .359-1.441c44.286-23.585 120.631-77.194 121.4-77.733a1 1 0 0 1 1.418.279c5.308 8.288 11.3 17.487 17.636 27.225l2.824 4.338c.062.088.1.149.145.215l.085.111c7.435 11.405 14.446 21.648 22.094 32.276a1 1 0 0 1-.262 1.419l-117.499 77.351a.99.99 0 0 1-.549.165zm-45.376-64.409c4.717 6.934 9.306 13.056 14.153 19.523 2.173 2.9 4.415 5.889 6.772 9.09 11.766 15.983 22.2 30.074 24.691 33.441l115.832-76.263c-7.431-10.352-14.283-20.375-21.51-31.464l-.1-.135-.09-.134-.066-.094-2.827-4.347c-6.119-9.4-11.91-18.3-17.082-26.36-8.493 5.945-77.81 54.22-119.773 76.743z" fill="#112c41"/><path d="M121.894 601.1c48.963-14.828 100.556-53.4 138.725-93a384.948 384.948 0 0 0 29.558-34.327s-28.137-32.192-44.122-52.328l-9.473 6.274S128.9 498.673 128.563 498.792c-5.063 9.969-26.346 57.684-6.669 102.308z" fill="#ffa9dc"/><path d="M290.177 473.765s-28.137-32.192-44.122-52.328l-10.206 9.79c11.6 19.245 30.187 49.038 31.963 69.479.019.214 13.921-15.784 22.365-26.941z" fill="#ff90d8"/><path d="M121.894 602.1a1 1 0 0 1-.915-.6c-20.214-45.836 2.028-93.974 6.692-103.159a1 1 0 0 1 .408-.422c2.021-1.235 106.892-70.342 107.953-71.041l9.47-6.273a1 1 0 0 1 1.336.212c15.788 19.888 43.81 51.97 44.092 52.292a1 1 0 0 1 .044 1.261 384.769 384.769 0 0 1-29.635 34.418c-43.577 45.209-95.6 80.075-139.155 93.266a1.009 1.009 0 0 1-.29.046zm7.449-102.63c-3.257 6.485-26.281 55.229-6.888 100.412 43.072-13.29 94.376-47.8 137.444-92.479a384.259 384.259 0 0 0 28.989-33.589c-3.921-4.5-28.368-32.612-43.045-51.033l-8.709 5.769c-91.571 60.338-105.559 69.492-107.791 70.915z" fill="#112c41"/><path d="M200.277 563.636a2.5 2.5 0 0 1-2.423-1.893c-4.608-18.422-.154-36.962 14.893-61.991 14.516-24.146 14.914-40.476 1.521-62.4a2.5 2.5 0 0 1 4.267-2.606c14.375 23.533 13.968 41.85-1.5 67.584-17.975 29.9-17.329 46.2-14.328 58.2a2.5 2.5 0 0 1-2.427 3.107z" fill="#fff"/><path d="M132.637 621.606a4.931 4.931 0 0 0 3.974 2.226C169 625.279 269.306 553.948 304.6 501.39c3.024-4.5 2.126-7.551.319-10.341l-14.744-17.284C252.741 523.2 185.125 581.943 121.894 601.1c3.066 7.4 6.574 14.618 10.743 20.506z" fill="#fff"/><path d="M137.561 624.853c-.34 0-.67-.008-.994-.022a5.914 5.914 0 0 1-4.747-2.648c-3.687-5.208-7.237-11.981-10.85-20.706a1 1 0 0 1 .634-1.339C185.455 580.8 253.333 520.76 289.38 473.161a1 1 0 0 1 1.557-.045l14.745 17.284a.994.994 0 0 1 .079.105c1.785 2.758 3.143 6.273-.328 11.443-16.412 24.437-48.311 54.989-85.331 81.726-35.343 25.526-66.765 41.179-82.541 41.179zm-4.108-3.825a3.953 3.953 0 0 0 3.2 1.8c30.66 1.359 130.679-67.745 167.116-122 2.641-3.932 2.055-6.522.345-9.185l-13.9-16.289C254 522.781 186.766 582.058 123.242 601.728a102.108 102.108 0 0 0 10.211 19.3z" fill="#112c41"/><path d="M246.052 421.433c-29.472 31.2-80.562 63.634-117.489 77.359 0 0-9.53-12.989-21.49-29.085-.416-.557-.831-1.124-1.247-1.692s-.831-1.133-1.256-1.7-.84-1.145-1.265-1.722c33.98-13.228 82.178-44.906 120.231-76.026 0 0 .055.084.166.231a1.4 1.4 0 0 1 .128.188c.047.064.093.117.13.179a833.096 833.096 0 0 0 22.092 32.268z" fill="#fff"/><path d="M128.563 499.792a1 1 0 0 1-.807-.408c-.095-.13-9.664-13.171-21.486-29.081-.393-.526-.786-1.063-1.181-1.6l-.069-.095c-.434-.592-.837-1.142-1.25-1.693l-1.271-1.73a1 1 0 0 1 .443-1.524c31.522-12.271 78.609-42.051 119.961-75.868a1.008 1.008 0 0 1 .784-.214 1 1 0 0 1 .684.439c.007.009.05.073.129.178.066.088.12.163.165.236a2.1 2.1 0 0 1 .16.231 828.356 828.356 0 0 0 22.038 32.187 1 1 0 0 1-.084 1.271c-28.044 29.692-78.716 63.057-117.868 77.609a.985.985 0 0 1-.348.062zm-23.684-34.746.5.677c.411.548.819 1.1 1.226 1.66l.1.136c.391.533.781 1.066 1.172 1.589a6720.459 6720.459 0 0 1 21.047 28.483c38.539-14.5 88.032-47.077 115.836-76.246a825.924 825.924 0 0 1-21.428-31.318c-40.774 33.226-86.981 62.483-118.453 75.019z" fill="#112c41"/><circle cx="155.225" cy="514.491" fill="#ffe993" r="8.5"/><path d="M155.673 517.408c-12.54 8.773-30.657 11.59-37.064 10.61a2.832 2.832 0 0 1 .855-5.6c4.919.751 22.294-1.8 33.68-10.168a2.832 2.832 0 1 1 3.357 4.562c-.273.203-.55.401-.828.596z" fill="#fff"/><path d="M121.547 529.2a20.885 20.885 0 0 1-3.089-.2 3.832 3.832 0 1 1 1.157-7.577c4.788.731 21.774-1.782 32.937-9.985a3.832 3.832 0 1 1 4.541 6.174c-.279.2-.562.409-.847.609-11.266 7.888-26.582 10.979-34.699 10.979zm-2.511-5.818a1.832 1.832 0 0 0-.276 3.644c6.134.938 24.02-1.823 36.34-10.441q.408-.285.808-.58a1.832 1.832 0 1 0-2.172-2.951c-11.6 8.526-29.386 11.12-34.423 10.35a1.855 1.855 0 0 0-.277-.018z" fill="#112c41"/><circle cx="153.547" cy="541.318" fill="#ffe993" r="8.5"/><path d="M153.929 544.571c-12.93 8.187-33.144 9.142-39.5 7.87a2.833 2.833 0 1 1 1.112-5.555c4.879.977 24.339.252 36.1-7.582a2.832 2.832 0 0 1 3.143 4.712c-.284.184-.568.374-.855.555z" fill="#fff"/><path d="M120.6 553.882a35.184 35.184 0 0 1-6.367-.461 3.832 3.832 0 0 1 1.5-7.515c4.484.9 23.638.367 35.347-7.434a3.832 3.832 0 0 1 4.253 6.375q-.432.289-.874.569c-10.351 6.557-24.916 8.466-33.859 8.466zm-5.614-6.051a1.832 1.832 0 0 0-.36 3.629c5.742 1.15 25.7.537 38.768-7.734q.422-.266.834-.542a1.832 1.832 0 1 0-2.034-3.048c-12.191 8.122-32.17 8.667-36.849 7.731a1.837 1.837 0 0 0-.359-.036z" fill="#112c41"/><path d="M290.442 199.223s-6.34 0-15.99.85c-28.67 2.51-86.53 12.5-94.01 52.15-5.55 29.43 14.81 69.23 25.65 87.74a17.192 17.192 0 0 1-2.1 20.25c-.05.05-.09.1-.14.15-9.2 9.9-26.28 26.03-53.41 43.86a464.641 464.641 0 0 1-65.2 35.88s-76.8-81.88-83.8-186.88 70.01-179.8 168-219c90-36 213-49 271-7 57.68 41.77-150 172-150 172z" fill="#b2b0f7"/><path d="M206.092 339.963a17.192 17.192 0 0 1-2.1 20.25c-2.55-19.99-44.55-62.99-40.55-108.99 4.019-46.216 63-79 113-87l-1.99 35.85c-28.67 2.51-86.53 12.5-94.01 52.15-5.55 29.43 14.81 69.23 25.65 87.74z" fill="#9797f7"/><path d="M85.24 441.1a1 1 0 0 1-.729-.316c-.193-.206-19.5-20.934-39.4-54.237C26.736 355.805 4.073 307.727.444 253.289c-3.321-49.825 11.772-95.206 44.856-134.883 29.15-34.952 71.948-64.383 123.771-85.112C215.14 14.866 269.018 2.9 316.891.474c37.652-1.911 89.751 1.038 124.138 25.939 7.26 5.257 10.8 12.174 10.519 20.56-.743 22.285-28.027 54.842-81.1 96.766-39.393 31.12-79.083 56.082-79.48 56.331a1 1 0 0 1-.531.153c-.992 0-99.286.608-109.017 52.185-5.594 29.646 15.988 70.753 25.526 87.051a18.085 18.085 0 0 1-2.364 21.589c-9.6 10.322-26.7 26.336-53.6 44.01a470.216 470.216 0 0 1-65.358 35.965 1 1 0 0 1-.384.077zM335.5 1.99q-9.015 0-18.5.481c-47.662 2.42-101.307 14.331-147.18 32.68C57.212 80.192-3.794 159.652 2.44 253.156c3.6 54.042 26.125 101.811 44.384 132.369C64.88 415.742 82.415 435.513 85.5 438.9a473.99 473.99 0 0 0 64.4-35.515c26.729-17.565 43.7-33.46 53.23-43.7a16.1 16.1 0 0 0 2.1-19.217c-11.989-20.485-31.278-59.212-25.766-88.432 4.167-22.081 24.737-38.389 59.488-47.159a240.063 240.063 0 0 1 51.2-6.653c6.994-4.423 157.7-100.4 159.4-151.319.256-7.68-3.006-14.03-9.694-18.873C416.183 10.89 380.344 1.99 335.5 1.99z" fill="#112c41"/><path d="M429.442 260.223c-54.65 44.89-57.61 92.24-54 132 3.83 42.1 33.43 91.219 47.11 111.96 3.99 6.04 3.12 15.03-2.11 20.04-2.7 2.589-5.99 5.589-9.85 8.94v.01c-10.79 9.369-26.01 21.51-45.15 35.05-39.4 27.87-69.08 37.63-69.08 37.63s-84.6-86.53-102.92-217.63c-19-136 56-251 113-294 49.84-37.6 114.98-60.67 130.55-65.87 2.24-.75 3.45-1.13 3.45-1.13s56 35 59 99c2.58 55.077-14 88-70 134z" fill="#b2b0f7"/><path d="M429.442 260.223c-54.65 44.89-57.61 92.24-54 132 3.83 42.1 33.43 91.219 47.11 111.96 3.99 6.04 3.12 15.03-2.11 20.04-2.7 2.589-5.99 5.589-9.85 8.94 18.85-26.94-70.15-90.94-49.15-200.94 12.653-66.279 87-100 112-164 24.061-61.6-7.76-108.93-34-141 2.24-.75 1 0 1 0s56 35 59 99c2.58 55.077-14 88-70 134z" fill="#9797f7"/><g fill="#112c41"><path d="M296.364 606.854a1 1 0 0 1-.716-.3c-.212-.217-21.5-22.149-44.728-59.828-21.438-34.772-48.983-90.471-58.468-158.364-6.575-47.062-2.452-94.629 12.254-141.392a348.345 348.345 0 0 1 56.051-107.737 1 1 0 0 1 1.581 1.225c-26.106 33.733-84.983 125.39-67.905 247.626 9.433 67.525 36.833 122.942 58.158 157.54 21.284 34.533 40.909 55.758 44.052 59.075 4.376-1.544 32.432-11.978 68.222-37.293a609.31 609.31 0 0 0 54.513-43.229 15.058 15.058 0 0 0 2.513-19.624c-12.987-19.681-43.606-70.016-47.445-112.24-3.69-40.588-.117-88.113 54.361-132.863 54.972-45.155 71.893-77.519 69.636-133.187-1.536-37.871-21.391-64.967-37.778-81.029a150.681 150.681 0 0 0-35.655-26.109 1 1 0 1 1 .864-1.8 152.765 152.765 0 0 1 36.143 26.437c16.666 16.322 36.861 43.87 38.424 82.424 2.288 56.422-14.81 89.18-70.364 134.813-53.757 44.158-57.281 91.071-53.639 131.137 3.8 41.772 34.219 91.765 47.122 111.319a17.047 17.047 0 0 1-2.846 22.215 611.852 611.852 0 0 1-54.694 43.373c-39.071 27.635-69.046 37.667-69.344 37.765a.993.993 0 0 1-.312.046z"/><path d="M447.443 163.223a.945.945 0 0 1-.21-.023c-29.554-6.333-47.9-22.106-57.733-49.641a1 1 0 0 1 1.884-.673c9.578 26.819 27.458 42.185 56.268 48.359a1 1 0 0 1-.209 1.978z"/></g></svg></g><g transform="translate(821.0 255.0) rotate(0.0 468.5 291.0) scale(0.9998922207958374 0.9999295582269977)"><svg width="937.101" height="582.041" viewBox="0 0 937.101 582.041"><path d="M663.442 426.696c-.09 37.34-7.93 79.66-7.93 79.66s-80.34 26.3-217.26-5.67c-136.92-31.96-230.22-80.13-230.22-80.13s9.38-126.9 42.78-149.56c14.72-9.98 81.03 13.52 174.76 33.97 10.23 2.23 20.79 4.43 31.65 6.54 11.18 2.18 21.76 4.19 31.77 6.07 3.52.67 6.97 1.31 10.35 1.94 93.59 17.37 134.24 22.16 146.45 30.05 6.65 4.29 10.99 13.57 13.71 26.17 2.97 13.75 3.99 31.47 3.94 50.96z" fill="#ffe993"/><path d="M568.402 517.509c-33.203 0-77.487-3.499-130.378-15.849-135.474-31.622-229.517-79.733-230.451-80.215a1.003 1.003 0 0 1-.538-.962c.384-5.201 9.8-127.643 43.216-150.314 10.256-6.952 43.135 1.373 92.902 13.975 24.302 6.154 51.847 13.128 82.632 19.845a1410.445 1410.445 0 0 0 31.627 6.535c9.806 1.912 19.898 3.84 31.765 6.069 2.979.567 5.907 1.112 8.784 1.648l1.564.291c27.074 5.025 50.059 9.057 68.526 12.296 46.23 8.109 69.436 12.18 78.283 17.897 6.535 4.216 11.162 12.982 14.145 26.799 2.723 12.605 4.019 29.344 3.963 51.174-.089 37.002-7.869 79.415-7.947 79.839a.998.998 0 0 1-.672.768c-.202.066-20.63 6.643-57.527 9.201-8.62.598-18.62 1.001-29.894 1.001zm-359.32-97.541c8.189 4.131 99.784 49.49 229.397 79.745 129.106 30.146 208.727 8.087 216.156 5.867.941-5.271 7.724-44.45 7.807-78.885.056-21.684-1.227-38.284-3.918-50.747-2.825-13.088-7.291-21.681-13.274-25.541-8.508-5.497-31.579-9.545-77.544-17.607-18.473-3.24-41.462-7.273-68.547-12.3l-1.564-.291c-2.88-.536-5.81-1.082-8.789-1.649a4566.67 4566.67 0 0 1-31.775-6.071 1414.357 1414.357 0 0 1-31.671-6.544c-30.818-6.724-58.38-13.703-82.696-19.86-47.475-12.021-81.781-20.708-91.289-14.259-31.388 21.294-41.49 138.213-42.292 148.144z" fill="#112c41"/><path d="M659.502 375.736c-2.21.43-5.594.831-7.26-1.86-13-21-166-50-166-50s2 0 2.75-6.3c3.52.67 6.97 1.31 10.35 1.94 93.59 17.37 134.24 22.16 146.45 30.05 6.65 4.29 10.99 13.57 13.71 26.17z" fill="#ffd169"/><path d="M568.402 517.509c-33.203 0-77.487-3.499-130.378-15.849-135.474-31.622-229.517-79.733-230.451-80.215a1.003 1.003 0 0 1-.538-.962c.384-5.201 9.8-127.643 43.216-150.314 10.256-6.952 43.135 1.373 92.902 13.975 24.302 6.154 51.847 13.128 82.632 19.845a1410.445 1410.445 0 0 0 31.627 6.535 5248.67 5248.67 0 0 0 42.112 8.008c27.075 5.025 50.06 9.057 68.527 12.296 46.23 8.109 69.436 12.18 78.283 17.897 12.462 8.045 18.216 32.822 18.107 77.972-.089 37.003-7.869 79.416-7.947 79.84a.998.998 0 0 1-.672.768c-.202.066-20.63 6.643-57.527 9.201-8.62.598-18.62 1.001-29.894 1.001zm-359.32-97.541c8.189 4.131 99.784 49.49 229.397 79.745 129.106 30.146 208.727 8.087 216.156 5.867.941-5.271 7.724-44.45 7.807-78.885l1 .002-1-.002c.105-43.797-5.519-68.751-17.192-76.287-8.508-5.497-31.579-9.544-77.544-17.607-18.473-3.24-41.462-7.273-68.547-12.3a5199.792 5199.792 0 0 1-42.129-8.012 1414.357 1414.357 0 0 1-31.671-6.544c-30.818-6.724-58.38-13.703-82.696-19.86-47.475-12.021-81.781-20.708-91.289-14.259-31.388 21.294-41.49 138.213-42.292 148.144z" fill="#112c41"/><path d="M585.252 449.816c-.2 2.23-.46 4.47-.77 6.72l-.09.6c-11.17 78.77-85.3 133.56-165.85 122.48a151.33 151.33 0 0 1-28.61-6.81c-65.07-22.37-107.47-87.15-97.93-156.52.47-3.4 1.05-6.76 1.75-10.06z" fill="#ffe993"/><path d="M561.242 516.876c-11 19-62.15 73.82-142.7 62.74a151.33 151.33 0 0 1-28.61-6.81c35.31 3.07 72.31.07 120.31-36.93 14.604-11.257 23-22 23-22s15 2 28 3z" fill="#ffd169"/><path d="M439.22 582.035c-6.927 0-13.88-.474-20.818-1.429-81.185-11.171-138.333-84.946-127.392-164.456.467-3.393 1.06-6.803 1.763-10.135a1 1 0 0 1 1.957.413 143.477 143.477 0 0 0-1.739 9.995c-10.79 78.418 45.592 151.182 125.685 162.203 55.467 7.632 111.228-16.933 142.041-62.586a1 1 0 0 1 1.659 1.119c-15.175 22.482-36.433 40.34-61.478 51.646-19.401 8.758-40.403 13.232-61.677 13.232zM259.765 383.607c-.152.887-.303 1.765-.462 2.622-3.414 19.234-9.505 36.656-13.845 51.544-5.242-2.104-7.096-6.165-11.07-7.58-3.31-1.182-4.965-5.216-9.089-7.307-.01-.001-3.1.593-3.108.582-.594-.304-4.044 1.291-4.627.978 1.14-14.157 3.18-30.077 6.07-46.83 6.715-38.898 16.427-72.063 25.068-88.358.996-1.882 1.98-3.533 2.942-4.945 2.783-4.089 5.409-6.15 7.709-5.773 3.059.512 5.196 5.298 6.404 13.317.387 2.547.677 5.423.877 8.59 1.214 19.346-1.06 49.588-6.87 83.16z" fill="#112c41"/><path d="m246.109 439.111-1.023-.411c-2.911-1.168-4.838-2.907-6.537-4.441-1.498-1.351-2.791-2.518-4.496-3.125-1.891-.675-3.231-2.091-4.652-3.59-1.237-1.307-2.516-2.656-4.26-3.612l-.46.087c-1.71.325-2.405.459-2.777.413-.335.036-1.191.309-1.719.477-1.639.522-2.456.758-3.093.417l-.576-.309.052-.652c1.169-14.521 3.216-30.307 6.082-46.919 6.504-37.676 16.148-71.647 25.17-88.656 1.001-1.892 2.01-3.588 2.999-5.039 3.098-4.55 6.025-6.635 8.697-6.197 3.472.581 5.903 5.343 7.231 14.155.384 2.527.682 5.447.886 8.676 1.276 20.348-1.232 50.745-6.883 83.392l-.985-.169.977.223c-.15.874-.299 1.737-.454 2.58-2.633 14.833-6.882 28.688-10.631 40.912-1.149 3.748-2.235 7.288-3.238 10.73l-.309 1.059zm-20.79-17.227c.041 0 .072.004.115.01l.167.023.149.076c2.205 1.119 3.744 2.743 5.102 4.176 1.306 1.378 2.433 2.568 3.871 3.082 2.079.74 3.578 2.093 5.165 3.524 1.427 1.288 2.896 2.613 4.932 3.618.916-3.108 1.895-6.299 2.924-9.657 3.732-12.17 7.962-25.963 10.575-40.682.155-.842.302-1.697.45-2.562l.01-.055c5.543-32.024 8.106-63.024 6.857-82.927-.2-3.171-.492-6.031-.867-8.502-1.553-10.307-4.163-12.244-5.581-12.481-1.785-.295-4.132 1.552-6.717 5.35-.948 1.391-1.918 3.022-2.885 4.85-8.93 16.836-18.496 50.578-24.967 88.06-2.774 16.081-4.778 31.383-5.957 45.501.317-.093.655-.201.915-.283 1.294-.413 2.067-.646 2.656-.558.407-.074 1.375-.258 2.073-.391.711-.135.896-.171 1.012-.171zm35.431-38.107-.985-.171.985.169zm386.627 122.895c-.64.174-1.267.33-1.915.494-9.34 2.369-16.28 3.655-25.696 5.327-.56.105-1.403-.365-1.981-.273-.004-.041 3.384-2.441 2.118-.718-.961-15.465-5.7-31.864-4.778-51.33.039-.873.08-1.755.133-2.657 2.036-39.592 7.746-73.753 14.433-90.81.095-.249.2-.497.295-.747 2.861-7.076 5.904-10.998 8.898-10.818 2.323.138 4.429 2.729 6.239 7.329l.245.639c5.895 15.771 8.69 53.191 6.449 96.55-.883 16.978-2.425 32.957-4.44 47.014z" fill="#112c41"/><path d="m619.075 514.315-.054-.868a8.185 8.185 0 0 1-.501-.12c-.192-.051-.496-.127-.583-.118l-.965.084-.181-.954c-.098-.821 1.221-1.62 2.026-2.028-.397-5.32-1.209-10.741-2.065-16.457-1.578-10.532-3.21-21.422-2.627-33.729.039-.875.081-1.763.135-2.669 1.975-38.426 7.531-73.343 14.501-91.116l.29-.737c3.16-7.816 6.479-11.669 9.892-11.461 2.703.16 5.095 2.839 7.11 7.961l.249.65c6.151 16.455 8.707 54.511 6.514 96.957-.87 16.732-2.367 32.58-4.448 47.104l-.094.65-.634.173c-.571.156-1.133.297-1.709.442l-.226.057c-9.378 2.379-16.29 3.659-25.765 5.342a1.95 1.95 0 0 1-.272.03l-.594.807zm1.736-4.172c.059.052.107.105.146.154.243.311.267.639.198.934 8.646-1.543 15.269-2.804 24.061-5.034l.229-.057c.349-.088.693-.174 1.037-.263 2.024-14.285 3.483-29.848 4.337-46.269 2.182-42.194-.326-79.934-6.387-96.148l-.242-.63c-1.653-4.204-3.561-6.583-5.365-6.69a2.069 2.069 0 0 0-.137-.004c-2.355 0-5.109 3.609-7.774 10.199l-.286.727c-6.899 17.597-12.404 52.273-14.369 90.506-.055.904-.095 1.782-.134 2.65-.573 12.113 1.043 22.905 2.606 33.341.861 5.747 1.678 11.199 2.081 16.585z" fill="#112c41"/><path d="M926.472 231.726c-1.21 4.84-2.53 9.83-3.97 14.95l-.59 2.07c-14.4 50.33-40.85 112.67-93.93 163.24-55.88 53.24-146 96.86-210.17 101.21 0 0-.04 0-.16.01-.43-6.93-1.17-14.4-1.77-22.28-.74-9.69-1.27-20.02-.76-30.75.04-.88.08-1.76.14-2.66 2.03-39.59 7.74-73.75 14.43-90.81.09-.25.2-.5.29-.75 4.68-.7 9.85-1.62 15.39-2.85 31.33-6.93 74.41-23.57 107.22-63.44 19.74-24 48.04-68.6 55.88-105.37 10.24-48.02-10.96-72.02-1.75-81.52 4.4-4.54 16.22-4.42 27.97 15.13-8.28-46.14 5.56-57.29 11.46-59.31 8.34-2.85 16.77 5.46 20.31 14.5 1.35-5.59 9.02-17.28 18.71-16.16 6.62.77 17.13 10.71 17.62 29.85 10.35-16.1 29.51-4.73 32.27 30.45 1.73 22.13 2.63 59.61-8.59 104.49z" fill="#ffd6c0"/><path d="M863.265 126.628a1 1 0 0 1-.989-.862c-.028-.199-2.701-20.131 3.22-42.925a1 1 0 0 1 1.936.503c-5.816 22.392-3.202 41.952-3.175 42.146a1 1 0 0 1-.992 1.138zm32.863 15.808a1 1 0 0 1-.998-.95c-.675-13.438-.515-30.713 6.774-45.151a1 1 0 1 1 1.785.901c-7.077 14.019-7.225 30.958-6.562 44.149a1 1 0 0 1-.949 1.049l-.051.001zm-16.722 39.353a1 1 0 0 1-.907-.577c-8.183-17.493-26.509-27.543-32.283-29.684a2.996 2.996 0 0 1-1.786-1.809c-.899-2.518-3.729-9.633-10.586-21.301a1 1 0 1 1 1.724-1.013c6.942 11.815 9.827 19.071 10.744 21.642.103.285.314.5.599.606 6.405 2.375 24.891 12.522 33.4 30.712a1 1 0 0 1-.905 1.423z" fill="#112c41"/><path d="M911.556 156.271a.996.996 0 0 1-.738-.326c-12.339-13.524-37.031-28.61-60.353-31.276a1 1 0 0 1 .226-1.987c23.812 2.722 49.014 18.115 61.603 31.915a1 1 0 0 1-.738 1.674z" fill="#112c41"/><path d="M259.762 383.606c-.15.89-.3 1.77-.46 2.62-1.69 9.59-4.06 18.73-6.54 27.32-2.5 8.65-5.12 16.76-7.3 24.23-5.25-2.11-20.37-7.76-23.92-9.34-.01 0-.02 0-.03-.02-58.42-25.92-108.09-64.7-148.57-123.4-46.29-67.14-59.31-110.82-68.34-162.31-.04-.18-.07-.36-.1-.54-7.96-45.58-.97-77.33 7.18-98 12.94-32.82 34.59-38.08 39.77-19.65 6.09-18.15 19.04-24.58 25.6-23.38 9.59 1.78 13.5 15.2 13.16 20.93 6.02-7.6 16.52-13.07 23.66-7.9 5.05 3.65 15.02 18.38-6.44 60.07 16.98-15.25 28.32-11.91 31.19-6.28 6.02 11.79-9.649 38.577-2.38 74.92 8 40 33.83 76.43 55.45 98.74 19.61 20.22 38.85 31.42 56.55 43.26 6.26 4.18 14 7 18 10 1.22 19.35-.67 55.16-6.48 88.73z" fill="#ffd6c0"/><path d="M921.912 248.746c-14.4 50.33-40.85 112.67-93.93 163.24-55.88 53.24-146 96.86-210.17 101.21 0 0-.04 0-.16.01-.43-6.93-1.17-14.4-1.77-22.28 153.36-18.05 259.36-122.05 306.03-242.18zm-669.15 164.8c-2.5 8.65-5.12 16.76-7.3 24.23-5.25-2.11-20.37-7.76-23.92-9.34-.01 0-.02 0-.03-.02-58.42-25.92-108.09-64.7-148.57-123.4-46.29-67.14-59.31-110.82-68.34-162.31 19.64 72.17 89.64 213.17 248.16 270.84z" fill="#f5b9ab"/><g fill="#112c41"><path d="M617.575 514.217v-.003c-.978-.002-1.082-.763-1.093-.922a1.061 1.061 0 0 1 .133-.573c-.256-3.986-.605-8.117-.976-12.479-1.026-12.107-2.19-25.829-1.514-40.115.039-.875.081-1.763.135-2.669 1.975-38.426 7.531-73.342 14.501-91.116l.29-.737a.998.998 0 0 1 .787-.634 224.418 224.418 0 0 0 15.313-2.837c30.532-6.755 73.822-23.186 106.663-63.106 21.654-26.312 48.314-70.374 55.68-104.939 5.872-27.537 1.252-47.429-1.806-60.592-2.38-10.245-3.952-17.013.311-21.416 2.016-2.081 5.119-3.051 8.503-2.663 3.692.423 10.687 2.857 18.411 13.902-7.149-46.274 9.414-54.473 12.911-55.667 8.22-2.804 16.315 4.122 20.51 12.675 2.725-6.573 10.107-15.4 18.949-14.388 6.813.792 16.946 10.21 18.362 27.996 3.652-4.348 8.265-6.148 12.955-4.966 10.204 2.568 17.843 17.559 19.461 38.19 2.778 35.557-.123 70.826-8.622 104.815-8.238 32.952-18.72 62.039-32.042 88.926-17.589 35.493-40.039 66.384-66.729 91.813-56.239 53.583-146.93 97.217-210.955 101.498l-.081.004-.059.004zm13.13-147.356-.078.199c-6.899 17.597-12.404 52.273-14.369 90.506-.054.904-.095 1.782-.134 2.65-.67 14.156.487 27.808 1.509 39.854.356 4.211.695 8.206.949 12.073 63.555-4.638 153.062-47.862 208.709-100.88 46.394-44.203 79.436-104.688 98.21-179.775 8.446-33.781 11.329-68.83 8.567-104.173-1.763-22.471-10.288-34.477-17.955-36.406-4.633-1.166-9.066 1.112-12.478 6.417a.998.998 0 0 1-1.84-.515c-.495-19.093-11.147-28.234-16.74-28.884-8.721-1.002-16.226 9.649-17.621 15.403a1 1 0 0 1-1.902.129c-3.47-8.853-11.544-16.477-19.06-13.913-3.343 1.141-19.571 9.311-10.791 58.189a1 1 0 0 1-1.842.692c-8.302-13.811-15.82-16.593-19.563-17.022-2.769-.317-5.259.437-6.838 2.068-3.505 3.62-2.031 9.966.2 19.572 3.098 13.336 7.778 33.489 1.813 61.461-7.436 34.893-34.288 79.3-56.091 105.793-33.203 40.36-76.936 56.965-107.776 63.788a226.48 226.48 0 0 1-14.879 2.776zm-385.247 71.911a.997.997 0 0 1-.372-.072c-2.082-.835-5.733-2.235-9.6-3.718-5.993-2.298-12.19-4.673-14.354-5.634a.991.991 0 0 1-.047-.022c-61.7-27.386-110.43-67.863-148.964-123.742-44.9-65.122-59.154-109.169-68.603-163.244-6.439-36.869-4.006-70.021 7.23-98.536C18.34 24.556 30.025 12.464 40.542 13c4.834.246 8.713 3.318 10.929 8.546C58.046 4.951 70.501-1.081 77.235.157c8.727 1.614 13.224 12.227 13.909 19.31 6.326-6.719 15.608-10.513 22.684-5.401 4.244 3.071 16.139 16.023-3.346 56.304 10.639-8.305 18.043-8.581 21.7-7.9 3.347.623 6.019 2.458 7.33 5.034 2.721 5.329 1.164 13.764-.807 24.442-2.688 14.565-6.033 32.693-1.486 53.719 7.86 36.356 33.665 73.042 55.193 95.252 20.157 20.789 58.263 46.405 74.162 52.017a.996.996 0 0 1 .654.787c3.204 20.288-1.246 59.823-6.479 90.057l-.985-.171.985.169-.985-.169.977.223c-.15.874-.299 1.737-.454 2.58-2.633 14.833-6.882 28.688-10.631 40.912-1.149 3.748-2.235 7.288-3.238 10.73a1.004 1.004 0 0 1-.96.721zm-23.499-11.245c2.133.945 8.566 3.411 14.243 5.588 3.303 1.266 6.45 2.473 8.604 3.322.92-3.122 1.903-6.328 2.938-9.702 3.732-12.17 7.962-25.963 10.575-40.682.155-.842.302-1.697.45-2.562l.01-.055c5.156-29.788 9.556-68.604 6.564-88.821-18.299-6.725-55.533-32.883-74.366-52.307-21.721-22.409-47.763-59.453-55.713-96.221-4.631-21.418-1.103-40.542 1.475-54.505 1.901-10.306 3.403-18.446.991-23.171-1.028-2.019-3.184-3.468-5.914-3.976-3.709-.69-11.713-.236-23.714 10.543a1 1 0 0 1-1.556-1.201c21.752-42.267 10.176-55.149 6.11-58.09-6.726-4.858-15.984-.154-21.657 7.005a1 1 0 0 1-1.783-.68c.345-5.911-3.699-18.289-12.344-19.888-5.551-1.017-18.398 4.601-24.476 22.713a.992.992 0 0 1-.974.682 1.003 1.003 0 0 1-.938-.729c-1.705-6.071-5.273-9.548-10.047-9.792a9.574 9.574 0 0 0-.511-.013c-7.881 0-19.228 9.037-27.319 29.553C1.51 72.705-.886 105.494 5.489 141.996c9.625 55.094 23.357 97.301 68.278 162.454 38.323 55.573 86.782 95.825 148.146 123.057l.045.021z"/><path d="M73.243 65.876a.998.998 0 0 1-.992-1.13c3.175-24.342 17.283-42.822 20.079-46.279a1 1 0 1 1 1.554 1.257c-2.736 3.384-16.546 21.471-19.651 45.28a1 1 0 0 1-.99.871zm-26.852.283a1 1 0 0 1-.995-.91c-1.215-13.401.118-32.779 7.506-46.977a1 1 0 1 1 1.774.923c-7.187 13.814-8.477 32.754-7.287 45.873a1 1 0 0 1-.997 1.09zm26.85 40.717a1 1 0 0 1-.893-1.448c4.178-8.354 13.726-13.061 21.257-13.524.185-.381.371-.78.565-1.196 1.898-4.053 4.497-9.605 12.578-17.207a1 1 0 1 1 1.371 1.457c-7.803 7.34-10.309 12.691-12.138 16.598-.294.628-.569 1.216-.845 1.767a.998.998 0 0 1-.863.552c-7.024.221-16.197 4.568-20.137 12.448-.176.35-.528.553-.896.553zm846.151 166.91c-3.12 0-6.88-.165-11.417-.555-14.69-1.261-34.226-4.6-55.007-9.401-36.063-8.333-73.177-22.457-70.922-32.218.754-3.26 5.659-5.177 14.579-5.697.576-.035 1.025.389 1.057.94s-.389 1.024-.939 1.057c-10.785.629-12.508 3.112-12.747 4.151-1.43 6.187 26.73 19.955 69.424 29.819 20.691 4.781 40.127 8.104 54.727 9.357 21.938 1.883 24.483-1.589 24.74-2.698.605-2.617-4.479-6.883-13.6-11.412a1 1 0 1 1 .889-1.791c10.604 5.266 15.537 9.859 14.66 13.654-.302 1.304-1.109 4.795-15.443 4.795zm-21.531 65.598c-13.315.001-48.046-19.41-71.517-34.754-30.982-20.253-60.952-46.304-55.471-54.69 1.697-2.597 6.354-2.881 13.848-.841a1 1 0 1 1-.526 1.93c-6.278-1.71-10.526-1.708-11.648.006-3.474 5.315 18.215 27.946 54.891 51.921 34.155 22.328 61.27 34.528 70.481 34.529 1.576 0 2.627-.357 3.101-1.081 1.347-2.061-1.396-7.214-7.338-13.784a1 1 0 0 1 1.484-1.341c6.982 7.722 9.515 13.179 7.527 16.22-.849 1.298-2.518 1.885-4.833 1.885zm-405.049-14.398c-1.87 13.44-21.2 21.86-43.18 18.81-21.97-3.06-38.27-16.44-36.39-29.89.52-3.76 2.41-7.12 5.33-9.94 10.23 2.23 20.79 4.43 31.65 6.54 15.11 2.94 29.12 5.59 42.12 8.01.6 2.12.77 4.3.47 6.47z"/><path d="M458.481 345.414c-2.922 0-5.931-.203-8.987-.628-10.807-1.505-20.621-5.506-27.636-11.266-7.154-5.875-10.565-12.89-9.606-19.752.538-3.895 2.431-7.436 5.626-10.521l.385-.372.522.114a1410.445 1410.445 0 0 0 31.627 6.535 5247.365 5247.365 0 0 0 42.112 8.009l.61.114.169.597c.646 2.282.814 4.597.499 6.879-1.679 12.066-16.747 20.291-35.321 20.291zm-39.592-40.355c-2.637 2.675-4.202 5.695-4.657 8.984-.858 6.148 2.3 12.515 8.896 17.932 6.733 5.53 16.195 9.376 26.642 10.831 21.397 2.969 40.26-5.087 42.053-17.956.25-1.81.153-3.646-.286-5.466a5215.388 5215.388 0 0 1-41.506-7.896 1403.069 1403.069 0 0 1-31.141-6.429zm151.242 212.468c-19.826 0-41.823-3.626-42.053-3.665a1 1 0 0 1 .328-1.973c.239.04 24.142 3.981 44.447 3.613h.019a1 1 0 0 1 .019 2c-.913.016-1.835.024-2.76.024z"/></g></svg></g><g transform="translate(44.0 258.0) rotate(0.0 422.0 394.5) scale(0.9999680105020337 0.9991199133842812)"><svg width="844.027" height="789.695" viewBox="0 0 844.027 789.695"><path d="M842.108 81.21c-2.33 16.28-21 44-36 98v3s-.84 1.97-1 3c-.22 1.37-.8 2.59-1 4-.94 6.71-4.816 14.679-7 22-17 57-66.62 148.71-200 206-.67.29-1.34.57-2 .85-160.13 67.44-53-140.85-53-140.85 49-18 95.45-34.54 127-105 30-67 32-179 81-161 15-16 29-11 33 0 11-9 24.09-1 23 24-1 23-15 57 9 38 15.68-12.41 30-13 27 8z" fill="#ffd6c0"/><path d="M814.108 154.21c0 .09-1.44 3.93-2 7-.94 5.14-8.88 26.66-11 38-16 59-70.62 160.71-204 218-.67.29-1.34.57-2 .85v-29.85c-7-6 42.18-5.344 108-58 34.062-27.25 84-92 109-171 .727-2.297 1.97-4.9 2-5z" fill="#f5b9ab"/><path d="M542.717 432.465c-11.814 0-20.825-3.29-26.97-9.876-13.31-14.266-13.04-43.194.801-85.98 10.245-31.671 24.528-59.578 24.671-59.856.115-.223.31-.395.545-.481l1.284-.472c48.364-17.762 94.046-34.539 125.147-103.998 9.869-22.041 16.646-48.767 23.2-74.613 9.962-39.289 19.372-76.399 38.119-86.284 6.009-3.168 12.841-3.455 20.317-.856 7.431-7.729 15.392-11.182 22.497-9.728 4.922 1.009 9.032 4.444 11.213 9.297 4.483-3.208 9.353-3.865 13.519-1.778 6.99 3.5 10.652 13.492 10.047 27.412-.281 6.476-1.549 13.624-2.775 20.537-1.745 9.838-3.549 20.011-.701 21.712 1.158.69 3.977.371 10.856-5.076 10.377-8.214 20.117-11.24 25.428-7.895 2.797 1.763 5.617 6.126 3.169 16.9-1.365 6.007-4.397 12.993-8.595 22.662-7.362 16.964-18.489 42.599-29.413 84.37-11.459 43.81-29.098 81.196-53.926 114.294-36.259 48.337-87.953 87.154-153.647 115.371-22.243 9.554-40.549 14.336-54.786 14.336zm.105-154.452c-3.459 6.854-55.367 111.32-25.612 143.212 12.913 13.839 39.66 12.18 79.504-4.934 111.213-47.769 178.735-122.458 206.427-228.334 10.964-41.92 22.127-67.64 29.514-84.66 4.154-9.57 7.155-16.484 8.479-22.309 1.733-7.625.943-12.731-2.284-14.765-4.498-2.836-13.576.214-23.119 7.771-6.503 5.148-10.55 6.762-13.124 5.225-4.032-2.408-2.36-11.839-.242-23.778 1.214-6.849 2.471-13.931 2.746-20.275.562-12.905-2.782-22.451-8.944-25.537-3.764-1.885-8.292-1.026-12.424 2.354a1 1 0 0 1-1.572-.433c-1.791-4.925-5.524-8.304-10.242-9.271-6.529-1.338-14.021 2.074-21.089 9.613a1 1 0 0 1-1.074.255c-7.266-2.669-13.584-2.497-19.316.525-17.96 9.47-27.264 46.161-37.113 85.006-6.575 25.929-13.373 52.74-23.313 74.939-31.446 70.229-77.513 87.147-126.284 105.058l-.915.336z" fill="#112c41"/><path d="M785.099 9.786c-8.991 6.424-17.991 23.424-19.991 51.424" fill="#ffd6c0"/><path d="M765.109 62.21c-.023 0-.048 0-.072-.003a1 1 0 0 1-.926-1.069c1.771-24.801 9.4-44.302 20.407-52.167a1 1 0 0 1 1.163 1.627c-3.944 2.818-17.012 14.801-19.575 50.682a1 1 0 0 1-.996.929z" fill="#112c41"/><path d="M752.108 9.21c-8 6-17 24-19 52" fill="#ffd6c0"/><path d="M733.109 62.21c-.023 0-.048 0-.072-.003a1 1 0 0 1-.926-1.069c2.127-29.776 11.778-47.015 19.397-52.729a1 1 0 1 1 1.199 1.6c-7.857 5.893-16.656 24.032-18.603 51.271a1 1 0 0 1-.996.929z" fill="#112c41"/><path d="M80.336 400.598c3.641 22.226 15.832 54.736 31.541 80.714 22.822 37.738 46.546 59.237 61.235 56.959 8.305-1.289 24.314-7.667 40.3-13.967 3.799-1.501 7.608-2.992 11.305-4.416 7.586 13.246 32.196-1.266 39.075-1.769 18.201-1.337 282.131-63.138 282.131-63.138s1.276-5.198 15.185-8.772c13.778-3.537 41.596-12.074 46-21 5.344-10.837 13.127-38.62 1.284-79.313-12.638-43.42-37.284-75.687-51.284-79.687-5.987-1.711-16.682-1.233-35 0-26.99 1.81-73.474 11.613-134 21-17.343 2.685-30.472 5.565-51 9-2.887.479-4.143.5-7 1-2.263.389-6.756 1.6-9 2-83.77 14.856-149.859 35.532-193 52-25.459 9.722-43.716 21.002-46.999 27.081-2.316 4.289-2.417 12.25-.774 22.307z" fill="#ffe993"/><path d="M217.178 508.646c1.908 3.902 4.334 4.369 6.634 8.213 29.403 49.231 89.482 95.868 153.601 97.891 54.793 1.728 104.562-21.565 138.337-59.569v-.01c26.628-29.955 43.308-69.049 44.671-112.237a178.119 178.119 0 0 0-1.672-30.738l-341.57 96.451z" fill="#ffe993"/><path d="M80.336 400.598c1.093-.706 2.312-1.368 3.238-2.429 16.534-18.959 126.534-69.959 248.534-98.959l-2.025 2.632c-2.263.389 4.278-5.978 2.025-5.632-130 20-242.159 65.712-250.999 82.081-2.316 4.289-2.417 12.25-.774 22.307z" fill="#ffd169"/><path d="M80.336 400.598c3.641 22.226 15.832 54.736 31.541 80.714 22.822 37.738 46.546 59.237 61.235 56.959 8.305-1.289 24.314-7.667 40.3-13.967.188-28.808-7.384-62.814-24.776-97.6-18.022-36.066-44.223-60.658-64.528-73.495-22 10-39.716 19.002-42.999 25.081-2.316 4.289-2.417 12.25-.774 22.307zM518.108 266.21c11.276 11.401 40.697 48.488 50.862 92.45 7.924 34.267 6.982 54.899 4.689 84.442 13.778-3.537 28.618-9.322 33.022-18.248 5.344-10.837 13.554-38.264 1.711-78.957-12.638-43.42-35.284-73.687-48.284-78.687-5.812-2.235-23.682-2.233-42-1z" fill="#fff"/><path d="M224.748 518.889c26.252 55.855 86.087 93.76 152.554 95.857 54.793 1.728 104.562-21.565 138.337-59.569v-.01c-96.173 70.914-209.75 47.152-263.621-48.514-10.245 5.335-23.939 10.727-27.269 12.237z" fill="#ffd169"/><g fill="#112c41"><path d="M170.89 539.438c-15.51.001-38.129-21.658-59.869-57.608-23.01-38.05-38.183-86.197-31.832-101.014 9.74-22.728 126.206-65.942 261.761-87.594 24.864-3.971 47.086-7.566 66.692-10.737 94.012-15.207 132.926-21.503 147.681-18.252 15.593 3.436 40.683 35.528 54.029 81.384 12.922 44.395 1.909 72.211-1.774 79.679-5.822 11.808-28.446 18.241-46.4 21.558a1 1 0 0 1-.363-1.967c14.33-2.648 39.227-8.829 44.971-20.476 3.603-7.304 14.367-34.533 1.647-78.236-12.728-43.727-37.441-76.663-52.539-79.99-14.38-3.168-53.18 3.108-146.932 18.273a32986.4 32986.4 0 0 1-66.695 10.738c-64.295 10.269-128.157 25.905-179.821 44.026-45.193 15.851-76.008 32.091-80.418 42.381-6.028 14.067 9.379 62.272 31.705 99.191 22.11 36.56 45.772 58.732 60.227 56.488 15.368-2.383 65.676-23.322 86.821-36.137a1 1 0 0 1 1.037 1.71c-19.529 11.835-70.785 33.803-87.552 36.403-.771.12-1.563.179-2.375.179z"/><path d="M383.041 615.837c-1.921 0-3.842-.03-5.77-.091-66.927-2.111-125.727-38.673-153.453-95.418a1.001 1.001 0 0 1 1.797-.879c27.4 56.077 85.536 92.209 151.719 94.297 47.109 1.486 92.001-15.466 126.372-47.736 34.371-32.269 54.118-75.991 55.604-123.113a178.173 178.173 0 0 0-1.663-30.566 1.001 1.001 0 0 1 1.981-.281 180.152 180.152 0 0 1 1.681 30.91c-1.502 47.655-21.474 91.873-56.233 124.508-33.354 31.314-76.496 48.368-122.034 48.368zM172.788 526.83c-2.18 1.16-5.26.39-8.99-2.03-1.16-.74-2.38-1.65-3.65-2.7-1.3-1.08-2.64-2.29-4.04-3.65-11.17-10.92-25.4-30.99-38.44-55.31-15.18-28.34-24.67-54.82-25.72-69.58-.01-.1-.01-.2-.02-.3-.38-5.92.64-9.9 3.22-11.27 2.32-1.23 5.65-.29 9.7 2.49.44.3.9.63 1.36.98 11.72 8.85 28.72 31.59 44.06 60.2 13.57 25.32 22.58 49.16 25.1 64.48.28 1.67.47 3.24.59 4.71 0 .04.01.08.01.12.49 6.23-.51 10.43-3.18 11.86z"/><path d="M170.537 528.362c-2.052 0-4.488-.909-7.282-2.723-1.147-.732-2.409-1.665-3.744-2.768a70.676 70.676 0 0 1-4.099-3.703c-11.631-11.371-26.069-32.138-38.625-55.555-14.837-27.698-24.736-54.514-25.836-69.982l-.018-.274c-.424-6.595.837-10.706 3.746-12.25 2.626-1.394 6.24-.536 10.735 2.549.45.308.925.648 1.398 1.009 12.317 9.3 29.307 32.492 44.336 60.523 13.145 24.524 22.566 48.745 25.205 64.79a57.067 57.067 0 0 1 .615 4.993c.539 6.821-.708 11.134-3.709 12.742h-.002c-.813.434-1.722.65-2.721.65zM97.413 382.463c-.678 0-1.278.136-1.796.411-2.121 1.126-3.052 4.696-2.69 10.322l.017.267c1.084 15.231 10.895 41.739 25.606 69.205 12.465 23.247 26.767 43.833 38.258 55.067a69.402 69.402 0 0 0 3.979 3.596c1.271 1.05 2.465 1.934 3.55 2.626 2.413 1.566 5.751 3.178 7.98 1.991 2.204-1.182 3.121-4.951 2.654-10.899a1.738 1.738 0 0 1-.014-.198 55.71 55.71 0 0 0-.576-4.544c-2.605-15.844-11.949-39.832-24.995-64.173-14.675-27.371-31.86-50.873-43.781-59.874a33.287 33.287 0 0 0-1.32-.952c-2.745-1.884-5.077-2.843-6.872-2.843zm230.997-78.409c1.573 12.606 20.279 20.65 41.774 17.966 21.495-2.674 37.644-15.071 36.07-27.677-.422-3.435-2.125-6.53-4.804-9.146-17.343 2.685-36.229 5.741-56.757 9.175-5.17.867-10.3 1.746-15.371 2.657-.872 2.283-1.207 4.654-.912 7.025z"/><path d="M361.943 323.539c-7.525 0-14.61-1.312-20.512-3.85-8.23-3.539-13.207-9.048-14.014-15.511-.31-2.485.018-5.01.97-7.505a1 1 0 0 1 .758-.627 1351.44 1351.44 0 0 1 15.383-2.659c20.661-3.457 39.762-6.545 56.77-9.177a.992.992 0 0 1 .852.273c2.942 2.872 4.657 6.149 5.098 9.74.807 6.462-2.662 13.025-9.768 18.478-6.953 5.336-16.603 8.998-27.172 10.313a67.67 67.67 0 0 1-8.364.527zm-32.541-19.609c.715 5.73 5.268 10.674 12.819 13.922 7.73 3.324 17.62 4.452 27.839 3.176 10.222-1.271 19.526-4.793 26.201-9.915 6.52-5.003 9.716-10.915 9.001-16.646-.367-2.987-1.766-5.744-4.16-8.204-16.874 2.614-35.794 5.674-56.244 9.096a1385.75 1385.75 0 0 0-14.792 2.553c-.688 2.013-.911 4.035-.664 6.018z"/></g><path d="M283.728 733.1c.38 16.11-5.62 30.11-24.62 31.11 5 17-31 39-56 11-16.35-2.8-43.421-5.198-74-22-91-50-130.55-120.04-128-211 1.98-70.76 54.7-121.84 90.84-148.65 4.62-3.42 8.96-6.45 12.9-9.08.44.3.9.63 1.36.98 11.72 8.85 28.72 31.59 44.06 60.2 8.27 15.43 14.84 30.3 19.28 43.04 2.86 8.17 4.84 15.45 5.82 21.44.28 1.67.47 3.24.59 4.71 0 .04.01.08.01.12a71.09 71.09 0 0 0-12.17 9.83c-17.46 17.6-25.62 44.22-15.69 70.41 11 29 48.38 48.46 65 54 1.29.43 2.57.81 3.84 1.16.05.01.09.02.13.03 36.96 9.85 63.83-16.99 71.03-2.19 4.83 9.93-11.79 23.03-11 32 .54 6.11 14.7 7.16 18.2 26.56 1.83 10.17-4.12 21.73-11.58 26.33z" fill="#ffd6c0"/><path d="M216.948 650.37c-5.79-1.14-67.84-12.16-86.84-65.16-15.8-44.075 24.54-84.58 39.44-96.51 2.86 8.17 4.84 15.45 5.82 21.44.28 1.67.47 3.24.59 4.71 0 .04.01.08.01.12a71.09 71.09 0 0 0-12.17 9.83c-17.46 17.6-25.62 44.22-15.69 70.41 11 29 48.38 48.46 65 54 1.29.43 2.57.81 3.84 1.16z" fill="#f5b9ab"/><path d="M230.08 789.658c-9.676 0-19.932-3.857-27.522-13.527-1.783-.302-3.688-.605-5.707-.927-16.271-2.589-40.857-6.501-68.213-21.112C85 730.786 51.913 700.713 30.295 664.71 8.98 629.213-1.175 587.989.108 542.182c.884-31.574 11.919-62.313 32.798-91.362 15.025-20.904 34.689-40.44 58.446-58.063a325.568 325.568 0 0 1 12.941-9.109.997.997 0 0 1 1.118.006c.453.309.928.649 1.401 1.01 12.317 9.3 29.307 32.492 44.336 60.523 13.145 24.524 22.566 48.745 25.205 64.79a57.096 57.096 0 0 1 .615 4.992c0 .341-.174.659-.461.843a70.171 70.171 0 0 0-11.999 9.692c-18.636 18.785-24.562 45.359-15.465 69.351 11.379 30 50.332 48.723 64.381 53.406 20.849 6.95 38.811 1.585 51.925-2.333 11.537-3.447 19.871-5.936 23.658 1.844 2.984 6.136-1.306 12.985-5.455 19.609-2.962 4.73-5.761 9.197-5.448 12.741.16 1.812 1.998 3.216 4.542 5.158 4.526 3.456 11.367 8.68 13.646 21.312 1.947 10.825-4.389 22.282-11.525 27.029.637 9.947-1.871 18.498-7.087 24.127-4.302 4.642-10.32 7.203-17.459 7.443.672 8.797-5.524 17.206-16.086 21.657-4.233 1.784-9.068 2.809-14.056 2.81zM104.837 385.692a324.997 324.997 0 0 0-12.294 8.672C59.632 418.78 4.117 470.458 2.108 542.238c-2.566 91.532 41.513 164.18 127.471 210.09 27.061 14.453 51.447 18.333 67.585 20.901 2.173.346 4.214.67 6.113.996a.999.999 0 0 1 .624.376c10.846 14.101 27.63 15.388 39.457 10.405 10.148-4.276 15.941-12.383 14.76-20.654a1.001 1.001 0 0 1 .99-1.142c7.055 0 12.97-2.359 17.105-6.821 4.938-5.328 7.252-13.572 6.518-23.213a.998.998 0 0 1 .473-.927c6.784-4.184 12.966-15.047 11.12-25.302-2.141-11.868-8.354-16.613-12.892-20.077-2.84-2.168-5.082-3.881-5.32-6.572-.371-4.212 2.601-8.956 5.746-13.978 3.859-6.162 7.851-12.534 5.351-17.672-2.908-5.974-9.3-4.384-21.287-.802-13.37 3.994-31.683 9.463-53.13 2.314-14.3-4.766-53.963-23.866-65.618-54.594-9.378-24.735-3.28-52.12 15.915-71.469a72.154 72.154 0 0 1 11.835-9.641 56.978 56.978 0 0 0-.542-4.149c-2.605-15.844-11.949-39.832-24.995-64.173-14.675-27.371-31.86-50.873-43.781-59.874a32.656 32.656 0 0 0-.769-.567z" fill="#112c41"/><path d="M283.108 743.21c2-11-3-21-11-25" fill="#ffd6c0"/><path d="M283.109 744.211a1 1 0 0 1-.985-1.179c1.834-10.09-2.469-19.929-10.464-23.927a1 1 0 0 1 .895-1.789c8.785 4.393 13.529 15.114 11.536 26.073a.999.999 0 0 1-.982.821zm-61.001 31.999c-1.747 0-17.34-.036-26.903-1.269a1 1 0 1 1 .256-1.984c9.439 1.217 24.914 1.253 26.647 1.253a1 1 0 1 1 0 2zm37.187-7.234c-.539 0-.983-.43-.999-.972-.173-6.265-4.748-13.886-14.384-15.813a1 1 0 1 1 .393-1.961c10.709 2.142 15.796 10.686 15.991 17.719a1 1 0 0 1-.973 1.027z" fill="#112c41"/></svg></g><g transform="translate(279.0 788.0) rotate(0.0 134.0 120.0) scale(0.9907578558225508 0.9911539509874372)"><svg width="270.5" height="242.142" viewBox="0 0 270.5 242.142"><rect fill="#ff9522" height="269" rx="5.5" transform="matrix(.88813645 .45957986 -.45957986 .88813645 63 -16.691)" width="11" x="60.286" y="-13.429"/><path d="M6.494 242.144a6.508 6.508 0 0 1-5.766-9.49L119.299 3.514c.797-1.542 2.147-2.681 3.803-3.207s3.414-.376 4.957.422a6.507 6.507 0 0 1 2.786 8.76L12.273 238.628a6.45 6.45 0 0 1-3.802 3.207 6.533 6.533 0 0 1-1.978.309zm-2.061-2.506a4.474 4.474 0 0 0 3.432.292 4.467 4.467 0 0 0 2.632-2.22L129.069 8.569a4.506 4.506 0 0 0-1.93-6.065 4.473 4.473 0 0 0-3.432-.292 4.467 4.467 0 0 0-2.632 2.22L2.504 233.573a4.506 4.506 0 0 0 1.93 6.065z" fill="#112c41"/><path d="m269.5 89.682-48.255 93.255a265.354 265.354 0 0 1-124.933-53.816 264.32 264.32 0 0 1-27.827-25.231l48.255-93.255a265.518 265.518 0 0 0 116.83 71.129 267.306 267.306 0 0 0 35.93 7.918z" fill="#ffa9dc"/><path d="m269.5 89.682-48.255 93.255a265.354 265.354 0 0 1-124.933-53.816 264.32 264.32 0 0 1-27.827-25.231l48.255-93.255a265.518 265.518 0 0 0 116.83 71.129 267.306 267.306 0 0 0 35.93 7.918z" fill="#ffa9dc"/><path d="m269.5 89.682-48.255 93.255a265.354 265.354 0 0 1-124.933-53.816c67.08 32.887 126.588-6.174 137.258-47.357a267.306 267.306 0 0 0 35.93 7.918z" fill="#ff90d8"/><path d="M221.244 182.936a265.497 265.497 0 0 1-152.76-79.047l48.256-93.254A265.497 265.497 0 0 0 269.5 89.682l-48.255 93.255z" fill="none"/><path d="M221.245 183.936c-.049 0-.098-.004-.147-.011-58.199-8.656-112.654-36.835-153.335-79.345a1 1 0 0 1-.165-1.151l48.254-93.254a.997.997 0 0 1 1.61-.232c40.376 42.191 94.423 70.158 152.185 78.749a.998.998 0 0 1 .74 1.449l-48.255 93.255a1 1 0 0 1-.888.54zM69.702 103.713c40.155 41.731 93.724 69.45 150.983 78.128l47.285-91.38c-57.216-8.823-110.733-36.517-150.983-78.128z" fill="#112c41"/></svg></g><g transform="translate(1488.0 231.0) rotate(-29.483896148280433 -169.0 145.5) scale(-0.9727850432860563 0.9708316791384619)"><svg width="347.456" height="299.743" viewBox="0 0 347.456 299.743"><circle cx="313.794" cy="133.433" fill="#ffd6c0" r="28.57"/><path d="M321.584 160.92a28.567 28.567 0 0 0 20.071-33.809 28.572 28.572 0 0 1-55.89 4.64q-.2-.739-.37-1.478a28.59 28.59 0 0 0 36.189 30.647z" fill="#f5b9ab"/><path d="M313.817 163a29.653 29.653 0 0 1-15.5-4.365 1 1 0 0 1 1.047-1.705 27.568 27.568 0 1 0-12.594-18.009 1 1 0 0 1-1.959.4 29.678 29.678 0 0 1 20.92-34.335A29.569 29.569 0 1 1 313.817 163z" fill="#112c41"/><path d="M302.546 145.26a1 1 0 0 1-.823-.429 18.122 18.122 0 0 1 4.192-25.247 17.645 17.645 0 0 1 15.229-2.366 1 1 0 0 1-.574 1.916 15.646 15.646 0 0 0-13.513 2.092 16.118 16.118 0 0 0-3.691 22.463 1 1 0 0 1-.82 1.571z" fill="#112c41"/><circle cx="226.446" cy="196.341" fill="#ffd6c0" r="102.5"/><path d="M155.917 122.373c.249-.239.507-.463.758-.7l13.467 4.366c-38.4 37.156-40.885 96.151-4.388 134.091 36.563 38.009 98.4 40.494 137.007 3.356a98.234 98.234 0 0 0 10.412-11.736 102.51 102.51 0 1 1-157.256-129.377z" fill="#f5b9ab"/><path d="M227 299.694a103.45 103.45 0 1 1 71.733-28.86A103.206 103.206 0 0 1 227 299.694zm-73.173-33.084a101.5 101.5 0 1 0 2.783-143.516 101.616 101.616 0 0 0-2.783 143.516z" fill="#112c41"/><ellipse cx="205.228" cy="188.111" fill="#112c41" rx="6.828" ry="9.104" transform="matrix(.72068422 -.69326348 .69326348 .72068422 -73.087 194.819)"/><ellipse cx="181.282" cy="169.093" fill="#112c41" rx="14.13" ry="9.336" transform="matrix(.61176177 -.79104205 .79104205 .61176177 -63.379 209.051)"/><ellipse cx="287.714" cy="168.082" fill="#ffa6e0" rx="12.121" ry="8.009" transform="matrix(.64400347 -.76502257 .76502257 .64400347 -26.161 279.944)"/><ellipse cx="208.206" cy="216.799" fill="#ffa6e0" rx="12.121" ry="8.009" transform="matrix(.95320122 -.30233662 .30233662 .95320122 -55.802 73.094)"/><g fill="#112c41"><ellipse cx="256.241" cy="121.518" rx="13.016" ry="8.6" transform="matrix(.98691207 -.16125933 .16125933 .98691207 -16.242 42.911)"/><path d="M257.99 114.772c4.816 0 8.653 2.09 9.124 4.969.348 2.135-1.207 3.94-2.165 4.825a14.849 14.849 0 0 1-7.643 3.465 17.461 17.461 0 0 1-2.813.232c-4.816 0-8.654-2.09-9.124-4.969-.349-2.135 1.207-3.939 2.165-4.825a14.846 14.846 0 0 1 7.643-3.469 17.566 17.566 0 0 1 2.813-.232m0-2a19.623 19.623 0 0 0-3.135.258c-7.094 1.159-12.225 5.9-11.459 10.587.651 3.983 5.348 6.646 11.1 6.646a19.489 19.489 0 0 0 3.135-.258c7.1-1.159 12.225-5.9 11.459-10.586-.65-3.983-5.348-6.647-11.1-6.647z"/><ellipse cx="263.428" cy="150.022" rx="6.828" ry="9.104" transform="matrix(.92030014 -.39121305 .39121305 .92030014 -37.695 115.014)"/><path d="M228.417 192.649c8.063 9.545 19.732 13.193 27.651 8.089s9.418-17.237 4.056-28.523z"/><path d="M247.916 204.046c-6.836 0-14.4-3.816-20.263-10.752a1 1 0 0 1 .222-1.486l31.707-20.434a1 1 0 0 1 1.445.412c5.68 11.953 3.822 24.483-4.417 29.792a15.868 15.868 0 0 1-8.694 2.468zm-17.986-11.184c7.824 8.674 18.447 11.643 25.6 7.035s8.834-15.507 4.167-26.215z"/></g><path d="M260.9 194.544c-4.822-1.935-11.112-.562-15.747 3.895a17.791 17.791 0 0 0-2.953 3.71c4.947 1.51 9.885 1.158 13.872-1.411a14.684 14.684 0 0 0 5.25-6.014q-.213-.094-.422-.18z" fill="#ffa6e0"/><path d="M247.921 204.04a20.637 20.637 0 0 1-6.017-.934 1 1 0 0 1-.567-1.467 18.67 18.67 0 0 1 3.119-3.92c4.761-4.579 11.52-6.229 16.812-4.1h.005q.229.093.453.193a1 1 0 0 1 .492 1.35 15.6 15.6 0 0 1-5.609 6.417 15.868 15.868 0 0 1-8.688 2.461zm-4.137-2.5a15.024 15.024 0 0 0 11.742-1.646 13.427 13.427 0 0 0 4.383-4.649c-4.482-1.478-10.05.047-14.066 3.912a16.9 16.9 0 0 0-2.059 2.386z" fill="#112c41"/><circle cx="130.328" cy="256.606" fill="#ffd6c0" r="30.5"/><path d="M160.894 255.092a33.246 33.246 0 0 1-2.955 7.019c-8.024 14.817-27 19.952-41.808 11.933-9.718-5.259-14.734-14.706-15.242-24.981-3.528 13.289 1.631 27.416 14.266 34.261a30.493 30.493 0 0 0 41.345-12.291c2.76-5.09 4.671-10.541 4.394-15.941z" fill="#f5b9ab"/><path d="M130.345 288.106c-.209 0-.417 0-.627-.006a31.5 31.5 0 0 1-21.228-54.2 31.618 31.618 0 0 1 42.824-.792 1 1 0 0 1-1.334 1.491 29.606 29.606 0 0 0-40.1.743 29.5 29.5 0 1 0 40.9 42.52 31.456 31.456 0 0 0 9.115-22.753 1 1 0 0 1 2-.043 33.52 33.52 0 0 1-9.728 24.238 31.286 31.286 0 0 1-21.822 8.802z" fill="#112c41"/><path d="M113.915 260.325a1 1 0 0 1-1-.982 18.676 18.676 0 0 1 20.826-19.038 19.639 19.639 0 0 1 13.046 7.109 1 1 0 0 1-1.545 1.272 17.643 17.643 0 0 0-11.721-6.393 16.678 16.678 0 0 0-18.606 17.015 1 1 0 0 1-.983 1.017z" fill="#112c41"/><path d="M116.179 139.982a104.786 104.786 0 0 1 10.347-19.834 108.554 108.554 0 0 1 13.557-16.548c30.324-30.385 73.906-38.744 109.335-24.349a88.937 88.937 0 0 1 26.588 16.739c1.6 1.464.5 3.229-1.195 3.354-17.081 1.261-45.442 10.938-64.12 20.7-12.461 6.512-24.387 15.38-35.909 25.459q-7.269 6.358-13.747 13.111a63.913 63.913 0 0 1-11.53-25.056c-1.708 10.215-.23 22.976 3.071 34.471-13.549 16.058-24.416 33.839-30.892 50.6-.536 1.385-2.243 1.978-3.129.143-11.712-24.237-12.536-52.872-2.376-78.79z" fill="#b2b0f7"/><path d="M121.487 219.133c2.448-6.416 8.485-18.3 12.014-24.739-10.389-21.658-13.911-55.679 4.136-82.793a98.047 98.047 0 0 1 22.6-23.909 109.117 109.117 0 0 0-33.718 32.455c-20.285 30.489-23.019 68.548-7.729 99.108a1.477 1.477 0 0 0 2.697-.122z" fill="#9797f7"/><path d="M120.044 220.918a2.7 2.7 0 0 1-2.39-1.715c-11.791-24.4-12.668-53.406-2.406-79.587a106.068 106.068 0 0 1 10.446-20.022 109.871 109.871 0 0 1 13.681-16.7 106.771 106.771 0 0 1 53.252-29.239 97.235 97.235 0 0 1 57.173 4.67 89.9 89.9 0 0 1 26.886 16.926 2.9 2.9 0 0 1 .963 3.11 3.091 3.091 0 0 1-2.758 1.981c-17.737 1.309-46.332 11.5-63.732 20.588-11.3 5.9-22.981 14.187-35.714 25.324a219.196 219.196 0 0 0-13.684 13.052 1.015 1.015 0 0 1-.784.3 1 1 0 0 1-.739-.4A66.874 66.874 0 0 1 149.9 139.1a88.366 88.366 0 0 0 3.637 28.653 1 1 0 0 1-.2.921c-13.421 15.907-24.333 33.774-30.725 50.312a2.869 2.869 0 0 1-2.474 1.932h-.094zm93.863-147.536a99.744 99.744 0 0 0-20.861 2.229 104.786 104.786 0 0 0-52.255 28.7 108.014 108.014 0 0 0-13.433 16.389 104.115 104.115 0 0 0-10.249 19.646c-10.058 25.663-9.2 54.088 2.346 77.985.086.178.313.586.594.586h.011a.944.944 0 0 0 .691-.655c6.415-16.6 17.314-34.5 30.718-50.473-3.472-12.328-4.548-24.837-2.951-34.4a1 1 0 0 1 .967-.835h.02a1 1 0 0 1 .979.8 62.887 62.887 0 0 0 10.656 23.71 222.508 222.508 0 0 1 12.984-12.317c12.853-11.242 24.663-19.613 36.1-25.592 17.579-9.186 46.516-19.481 64.51-20.808a1.142 1.142 0 0 0 1.017-.641c.129-.373-.159-.738-.423-.979a87.911 87.911 0 0 0-26.289-16.549 93.136 93.136 0 0 0-35.132-6.796z" fill="#112c41"/><circle cx="151.717" cy="281.49" fill="#fff" r="11.5"/><path d="M151.69 293.994a12.5 12.5 0 0 1-12.268-10.256 12.474 12.474 0 1 1 12.268 10.256zm.049-23.007a10.671 10.671 0 0 0-1.911.174 10.514 10.514 0 0 0-8.44 12.218 10.5 10.5 0 1 0 10.351-12.392z" fill="#112c41"/><circle cx="334.954" cy="160.56" fill="#fff" r="11.5"/><path d="M334.928 173.064a12.508 12.508 0 0 1-12.27-10.256 12.5 12.5 0 1 1 14.542 10.048 12.715 12.715 0 0 1-2.272.208zm-10.3-10.616a10.5 10.5 0 1 0 8.44-12.217 10.432 10.432 0 0 0-8.44 12.217zM59.964 133.784q-1.794 0-3.585-.092c-16.968-.875-32.062-7.912-42.5-19.812C-8.73 88.113-3.147 45.283 26.322 18.405a1 1 0 0 1 1.348 1.479C-1 46.032-6.513 87.608 15.381 112.562c10.081 11.49 24.677 18.286 41.1 19.132 19.1.987 38.44-6.2 53.02-19.719a1 1 0 1 1 1.359 1.467 75.455 75.455 0 0 1-50.896 20.342z" fill="#112c41"/><path d="M114.454 109.405a63 63 0 1 0-89.079-1.728 63 63 0 0 0 89.079 1.728" fill="#9797f7"/><path d="M34.856 88.594a61.054 61.054 0 0 0 98.02-13.948A63.027 63.027 0 0 0 21.948 24.175a61.029 61.029 0 0 0 12.908 64.419z" fill="#b2b0f7"/><path d="M70.792 127.972a63.975 63.975 0 0 1-49.618-104.43 64.754 64.754 0 0 1 5.231-5.665 64 64 0 1 1 44.387 110.1zM70.765 2.03a61.791 61.791 0 0 0-42.972 17.288 62.7 62.7 0 0 0-5.07 5.489A62.079 62.079 0 1 0 70.765 2.03z" fill="#112c41"/></svg></g><g transform="translate(254.0 306.0) rotate(3.7135132353954226 137.5 114.5) scale(0.9919597156141674 0.9893290707219078)"><svg width="277.229" height="231.47" viewBox="0 0 277.229 231.47"><circle cx="247.656" cy="102.004" fill="#ffd6c0" r="28.57"/><path d="M244.644 130.414a28.567 28.567 0 0 0 31.223-23.9A28.572 28.572 0 0 1 222.273 90q.086-.762.207-1.509a28.589 28.589 0 0 0 22.164 41.924z" fill="#f5b9ab"/><path d="M247.678 131.575a29.589 29.589 0 0 1-23.77-11.952 1 1 0 0 1 1.606-1.193 27.569 27.569 0 1 0-4.976-21.4 1 1 0 0 1-1.968-.358 29.571 29.571 0 1 1 29.108 34.907z" fill="#112c41"/><path d="M233.182 108.859a1 1 0 0 1-.973-.776 18.452 18.452 0 0 1 2.185-13.792A17.56 17.56 0 0 1 260.52 89.7a1 1 0 1 1-1.248 1.563 15.56 15.56 0 0 0-23.168 4.07 16.466 16.466 0 0 0-1.946 12.306 1 1 0 0 1-.751 1.2.966.966 0 0 1-.225.02z" fill="#112c41"/><circle cx="143.688" cy="127.943" fill="#ffd6c0" r="102.5"/><path d="M105.269 32.916c.32-.13.643-.241.964-.367l10.867 9.069c-49.479 20.172-73.762 73.994-54.03 122.8 19.768 48.9 76.227 74.243 125.891 54.164A98.268 98.268 0 0 0 203 211.57a102.51 102.51 0 1 1-97.731-178.654z" fill="#f5b9ab"/><path d="M143.675 231.5a103.747 103.747 0 1 1 38.807-7.6 103.3 103.3 0 0 1-38.807 7.6zm.025-205.112a101.729 101.729 0 1 0 39.626 8.112 101.38 101.38 0 0 0-39.626-8.112z" fill="#112c41"/><ellipse cx="126.535" cy="112.293" fill="#112c41" rx="6.828" ry="9.104" transform="matrix(.92709884 -.37481696 .37481696 .92709884 -32.865 55.614)"/><ellipse cx="111.4" cy="85.723" fill="#112c41" rx="14.13" ry="9.336" transform="matrix(.86245184 -.50613914 .50613914 .86245184 -28.065 68.176)"/><ellipse cx="210.167" cy="121.3" fill="#ffa9dc" rx="12.121" ry="8.009" transform="matrix(.88267705 -.46998003 .46998003 .88267705 -32.351 113.007)"/><ellipse cx="118.423" cy="139.798" fill="#ffa9dc" rx="8.009" ry="12.121" transform="matrix(.07459583 -.99721385 .99721385 .07459583 -29.819 247.463)"/><g fill="#112c41"><ellipse cx="198.688" cy="69.502" rx="8.6" ry="13.016" transform="matrix(.21807511 -.97593199 .97593199 .21807511 87.53 248.252)"/><path d="M196.394 62.64a17.19 17.19 0 0 1 3.733.421 14.84 14.84 0 0 1 7.43 3.9c.905.939 2.354 2.83 1.882 4.942-.587 2.626-4.064 4.46-8.456 4.46a17.133 17.133 0 0 1-3.734-.422c-5.828-1.3-10.092-5.352-9.313-8.843.587-2.626 4.065-4.46 8.458-4.46m0-2c-5.269 0-9.583 2.33-10.408 6.024-1.037 4.638 3.814 9.666 10.826 11.238a19.128 19.128 0 0 0 4.171.47c5.269 0 9.583-2.33 10.408-6.024 1.036-4.635-3.812-9.664-10.828-11.232a19.178 19.178 0 0 0-4.17-.469z"/><ellipse cx="194.736" cy="98.632" rx="6.828" ry="9.104" transform="matrix(.99979717 -.02013974 .02013974 .99979717 -1.947 3.943)"/><path d="M147.13 125.111c3.926 11.862 13.4 19.595 22.647 17.809s15.162-12.487 14.391-24.958z"/><path d="M167.105 144.175c-8.685 0-17.177-7.428-20.924-18.75a1 1 0 0 1 .76-1.3l37.037-7.149a1 1 0 0 1 1.188.92c.817 13.209-5.576 24.144-15.2 26a15.132 15.132 0 0 1-2.861.279zm-18.65-18.3c4.029 10.963 12.781 17.678 21.132 16.064s13.976-11.1 13.635-22.775z"/></g><path d="M176.564 138.971c-3.753-3.592-10.1-4.662-16.064-2.252a17.713 17.713 0 0 0-4.123 2.342c4.029 3.244 8.742 4.758 13.4 3.859a14.683 14.683 0 0 0 7.112-3.625q-.159-.165-.325-.324z" fill="#ffa6e0"/><path d="M167.121 144.173a18.217 18.217 0 0 1-11.371-4.333 1 1 0 0 1 .02-1.574 18.818 18.818 0 0 1 4.355-2.475c6.124-2.476 13.008-1.487 17.13 2.458.121.116.239.233.354.354a1 1 0 0 1-.05 1.434 15.613 15.613 0 0 1-7.594 3.865 15.025 15.025 0 0 1-2.844.271zm-9.044-5.083a15.015 15.015 0 0 0 11.51 2.848 13.441 13.441 0 0 0 5.8-2.681c-3.609-3.042-9.343-3.7-14.511-1.611a16.92 16.92 0 0 0-2.799 1.444z" fill="#112c41"/><circle cx="31.508" cy="147.949" fill="#ffd6c0" r="30.5"/><path d="M60.437 157.932a33.178 33.178 0 0 1-5.358 5.413c-12.966 10.761-32.489 8.455-43.243-4.5-7.059-8.505-8.194-19.14-4.836-28.866-8.226 11.018-8.7 26.05.473 37.11a30.492 30.492 0 0 0 42.948 4c4.457-3.696 8.261-8.042 10.016-13.157z" fill="#f5b9ab"/><path d="M31.5 179.466a31.508 31.508 0 1 1 28.232-45.5 1 1 0 0 1-1.793.886A29.6 29.6 0 0 0 20.451 120.6a29.5 29.5 0 0 0 22.114 54.7A31.46 31.46 0 0 0 59.5 157.58a1 1 0 0 1 1.872.7 33.523 33.523 0 0 1-18.058 18.867 31.464 31.464 0 0 1-11.814 2.319z" fill="#112c41"/><path d="M49.253 146.854a1 1 0 0 1-.954-.7 17.277 17.277 0 0 0-21.49-11.55A16.764 16.764 0 0 0 16.2 144.713a1 1 0 0 1-1.872-.713 18.755 18.755 0 0 1 11.877-11.3 19.277 19.277 0 0 1 24 12.853 1 1 0 0 1-.953 1.3z" fill="#112c41"/><path d="M37 107.924c18.817-19.516 45.809-36.393 77.86-46.892a213.323 213.323 0 0 1 40.476-9.084 64.009 64.009 0 0 0-10.241-25.543c.136.1.282.188.408.288a75.849 75.849 0 0 1 22.07 24.157 187.56 187.56 0 0 1 7.542-.288c18.32-.309 35.367 2.184 50.027 7.2a1.861 1.861 0 0 0 2.318-2.511 89.573 89.573 0 0 0-17.986-25.972C182.5 2.165 139.131-7.2 99.331 8.89a108.729 108.729 0 0 0-18.955 9.918c-30.6 20.116-48.015 54.068-45.907 88.174a1.477 1.477 0 0 0 2.531.942z" fill="#fcaa51"/><path d="M37 107.924a155.9 155.9 0 0 1 15.824-14.263c-1.663-30.338 13.9-60.48 41.124-78.367a98.089 98.089 0 0 1 30.159-13.153 109.121 109.121 0 0 0-43.731 16.667c-30.6 20.116-48.015 54.068-45.907 88.174a1.477 1.477 0 0 0 2.531.942z" fill="#ff9522"/><path d="M35.93 109.2a2.435 2.435 0 0 1-.87-.157 2.671 2.671 0 0 1-1.619-2.551c-1.667-34.7 16.108-68.616 46.388-88.514A109.848 109.848 0 0 1 98.956 7.963 106.761 106.761 0 0 1 159.4 1.9a97.232 97.232 0 0 1 50.778 26.675 89.845 89.845 0 0 1 18.115 26.1 2.9 2.9 0 0 1-.331 3.24 3.092 3.092 0 0 1-3.314.741c-16.6-5.658-36.317-8.015-57.02-6.81a1.015 1.015 0 0 1-.92-.491 76.832 76.832 0 0 0-17.971-21.022 66.817 66.817 0 0 1 7.574 21.444 1 1 0 0 1-.864 1.164 212.386 212.386 0 0 0-40.28 9.038C84.77 71.937 57.4 88.362 38.093 108.229a3.06 3.06 0 0 1-2.163.971zm44.449-90.39.549.836C51.236 39.156 33.806 72.4 35.439 106.392c.01.2.061.675.328.776a.941.941 0 0 0 .891-.333c19.526-20.095 47.188-36.7 77.891-46.755a214.7 214.7 0 0 1 39.607-8.992 62.841 62.841 0 0 0-9.888-24.109 1 1 0 0 1 1.38-1.4 76.631 76.631 0 0 1 22.476 24.236c20.738-1.134 40.5 1.263 57.173 6.95a1.147 1.147 0 0 0 1.186-.191c.279-.308.116-.8 0-1.067a87.881 87.881 0 0 0-17.714-25.52 95.246 95.246 0 0 0-49.746-26.121 104.778 104.778 0 0 0-59.318 5.951 107.879 107.879 0 0 0-18.777 9.829z" fill="#112c41"/></svg></g><g transform="translate(78.0 453.0) rotate(-56.15953580862019 58.0 33.0) scale(1.0107787353066755 1.012130227422595)"><svg width="114.763" height="65.209" viewBox="0 0 114.763 65.209"><path d="M14.146 1c0 16.125 11.4 29.313 27.666 28.646C60.045 28.9 67.978 5.7 56.194 3.223 71.947 6.2 69.161 31.912 47.52 40.436 24.2 49.619 1.129 32.632 1 9.437z" fill="#ff90d8"/><path d="M34.439 43.973a34.044 34.044 0 0 1-19.195-5.9A34.764 34.764 0 0 1 0 9.443 1 1 0 0 1 .46 8.6L13.606.158a1 1 0 0 1 1.54.842 28.95 28.95 0 0 0 8.433 20.918 24.254 24.254 0 0 0 18.192 6.729c11.477-.471 18.379-10.188 18.948-17.02.158-1.9.014-6.427-4.731-7.425a1 1 0 0 1 .392-1.961C62.5 3.4 66.514 7.962 67.128 14.457c.872 9.261-5.452 21.478-19.242 26.909a36.651 36.651 0 0 1-13.447 2.607zM2.007 9.979a32.627 32.627 0 0 0 45.146 29.526c12.871-5.069 18.79-16.343 17.984-24.859a12.115 12.115 0 0 0-2.765-6.935 11.42 11.42 0 0 1 .34 4.082 20.777 20.777 0 0 1-6.052 12.249 22 22 0 0 1-14.807 6.6 26.493 26.493 0 0 1-19.659-7.284 30.677 30.677 0 0 1-9-20.561z" fill="#112c41"/><path d="M96.491 21.353c-2.039 14.57-16.364 30.1-32.032 28.679C47.522 48.5 37.29 25.907 44.041 11.784c1.359-2.853 4.215-9.551 12.153-8.561-7.938-.99-12.364 2.518-14.759 5.213-12.9 14.515-6.742 46.293 17.108 53.884 29.419 9.364 55.891-17.8 55.207-43.853 0 0-17.489 2.857-17.259 2.886z" fill="#ffa9dc"/><path d="M70.547 65.218a40.515 40.515 0 0 1-12.307-1.944C47.015 59.7 38.645 50.617 35.276 38.352c-3.17-11.537-1.1-23.255 5.411-30.58 3.976-4.472 9.235-6.336 15.631-5.541a1 1 0 0 1 .876.992.87.87 0 0 1-.008.124 1 1 0 0 1-1.116.869c-6.93-.862-9.557 4.684-10.97 7.666l-.158.334c-3.271 6.843-2.462 16.4 2.063 24.355 4.148 7.288 10.542 11.829 17.544 12.465C79.564 50.4 93.484 35.265 95.487 21.305c-.012-.818.075-.833 3.531-1.417 1.619-.274 3.778-.632 5.937-.989 4.317-.714 8.633-1.419 8.633-1.419a1 1 0 0 1 1.161.961c.37 14.07-7.2 29.034-19.3 38.122a41.211 41.211 0 0 1-24.902 8.655zM46.83 5.5a15.051 15.051 0 0 0-4.647 3.6c-6.064 6.825-7.971 17.83-4.979 28.722C40.391 49.423 48.279 58 58.846 61.367c12.18 3.877 24.753 1.6 35.406-6.4 11.261-8.463 18.435-22.217 18.51-35.322-5.676.929-13.165 2.164-15.39 2.557a37.585 37.585 0 0 1-11.1 20.213c-6.546 6.242-14.327 9.3-21.907 8.616-7.664-.694-14.626-5.6-19.1-13.468-4.839-8.5-5.675-18.79-2.13-26.207l.156-.327A20.293 20.293 0 0 1 46.83 5.5z" fill="#112c41"/></svg></g><g transform="translate(177.0 1179.0) rotate(0.0 30.5 36.0) scale(0.9942950285248574 0.9949148795047535)"><svg width="61.35" height="72.368" viewBox="0 0 61.35 72.368"><path d="M59.956 27.421a223.518 223.518 0 0 0-16.163 11.875l-.014.004C29.135 51.07 18.932 52.315 4.267 71.368c6.222-23.156 3.99-30.836.21-49.277-.791-3.861-1.871-7.582-3.283-11.152-.183-.506-.383-1-.589-1.484l.244-.074C18.504 4.251 36.39-2.39 52.008 2.403c5.788 8.149 7.627 18.459 7.948 25.018z" fill="#ffe993"/><path d="M43.779 39.3C29.135 51.07 24.267 55.368 4.267 71.368c2-17 7-34-3.465-62.216C11.253 19.289 11.066 34.039 15.629 38.65c9.44 9.527 27.618.944 28.15.65z" fill="#ffd169"/><path d="M4.267 72.368a1 1 0 0 1-.985-1.171c3.875-22.279 4.44-29.968.61-48.653-.791-3.865-1.879-7.561-3.233-10.985a28.17 28.17 0 0 0-.58-1.461 1 1 0 0 1 .633-1.349l.241-.073c2.096-.609 4.183-1.236 6.269-1.862 15.443-4.637 31.412-9.431 45.474-5.116.211.065.394.197.522.377 6.67 9.392 7.909 20.995 8.132 25.549a1 1 0 0 1-.444.881 223.42 223.42 0 0 0-16.091 11.822 1.013 1.013 0 0 1-.085.061c-5.169 4.152-9.427 7.224-13.544 10.196-7.533 5.436-14.649 10.571-26.232 21.511-.19.179-.437.273-.687.273zM2.343 10.354c.064.165.126.331.186.498 1.386 3.504 2.507 7.312 3.322 11.291 3.725 18.171 3.369 26.103-.094 46.462C16.174 58.95 22.91 54.089 30.015 48.962c4.115-2.97 8.371-6.042 13.532-10.19.027-.021.054-.041.083-.06a225.995 225.995 0 0 1 15.691-11.554c-.284-4.661-1.597-15.098-7.538-23.646C38.375-.451 22.832 4.216 7.797 8.73a821.975 821.975 0 0 1-5.454 1.624z" fill="#112c41"/></svg></g><g transform="translate(1544.0 191.0) rotate(-103.90687426192697 51.0 44.0) scale(0.9978770654587789 1.006715248304028)"><svg width="102.217" height="87.413" viewBox="0 0 102.217 87.413"><path d="M101 20.413c-3 2.49-6 5.13-8.99 7.92l-.01.01c-16.16 15.1-32.15 34.62-48 58.07-17.76-6.11-31.98-14.78-42.33-26.25-.22-.25-.45-.5-.67-.75 28.88-18.53 52.06-33.94 70-58z" fill="#b2b0f7"/><path d="M44 87.413a1.02 1.02 0 0 1-.325-.054C25.573 81.131 11.191 72.207.927 60.833l-.678-.759a1.001 1.001 0 0 1 .21-1.503C31.351 38.751 52.894 24.023 70.198.815a1 1 0 0 1 1.337-.247l30 19a1.001 1.001 0 0 1 .104 1.614 206.418 206.418 0 0 0-8.947 7.882C76.978 43.748 60.878 63.228 44.829 86.973a1 1 0 0 1-.829.44zM2.528 59.621c9.882 10.903 23.7 19.515 41.075 25.596 15.991-23.581 32.042-42.959 47.715-57.604a209.966 209.966 0 0 1 7.99-7.088L71.245 2.752C54.023 25.556 32.75 40.209 2.528 59.621z" fill="#112c41"/><path d="M92 28.343c-16.16 15.1-32.15 34.62-48 58.07-17.76-6.11-31.65-15.53-42-27 9.65 6.27 30.74 11.16 45 0 14.7-11.51 29.53-23.06 45-31.07z" fill="#9797f7"/><path d="M44.217 87a1.02 1.02 0 0 1-.325-.054C25.79 80.718 11.408 71.794 1.145 60.42l-.678-.759a1.001 1.001 0 0 1 .21-1.503C31.568 38.338 53.111 23.61 70.416.402a1 1 0 0 1 1.337-.247l30 19a1.001 1.001 0 0 1 .104 1.614c-3 2.49-6.01 5.141-8.947 7.882C77.196 43.335 61.095 62.815 45.046 86.56a1 1 0 0 1-.829.44zM2.745 59.207c9.881 10.903 23.7 19.515 41.074 25.596 15.991-23.58 32.043-42.959 47.716-57.604a209.672 209.672 0 0 1 7.99-7.088L71.463 2.339C54.24 25.144 32.968 39.796 2.745 59.207z" fill="#112c41"/></svg></g><g transform="translate(732.0 757.0) rotate(-9.686310951737752 47.0 53.0) scale(0.9814772276400693 0.983904802569291)"><svg width="95.774" height="107.734" viewBox="0 0 95.774 107.734"><path d="M94.774 54.298c-19.664 13.153-38.108 29.529-55.81 47.935-.774.797-1.544 1.608-2.314 2.419-.603.629-1.21 1.266-1.809 1.908l-.163.174c-3.087-33.498-12.941-56.81-33.649-63.747L17.437 1.932l.156-.393c17.595 23.746 44.683 40.312 77.181 52.759z" fill="#9dd9f4"/><path d="M34.678 107.734a1.001 1.001 0 0 1-.996-.908C30.365 70.827 19.58 50.256.711 43.935A.999.999 0 0 1 .1 42.616L16.665 1.169a1 1 0 0 1 1.732-.226C34.428 22.58 59.528 39.728 95.132 53.364a1.001 1.001 0 0 1 .198 1.765c-18.254 12.21-36.456 27.844-55.645 47.796-.775.798-1.542 1.606-2.31 2.415-.603.629-1.207 1.263-1.803 1.902l-.156.167c-.192.21-.462.325-.738.325zM2.345 42.388c18.694 6.832 29.542 27.161 33.116 62.061l.467-.488c.769-.81 1.542-1.624 2.319-2.424 18.73-19.475 36.538-34.867 54.38-46.996C58.376 41.177 33.886 24.477 17.864 3.559z" fill="#112c41"/><path d="M94.774 54.298C75.11 67.451 52.361 87.965 34.659 106.371c5.872-6.712 26.106-37.42 13.601-58.609-11.855-20.087-23.898-34.689-30.823-45.83l.156-.393c17.595 23.746 44.683 40.312 77.181 52.759z" fill="#6ecfea"/><path d="M34.649 107.195a1 1 0 0 1-.996-.908C30.336 70.289 19.551 49.717.682 43.396a.999.999 0 0 1-.611-1.319L16.635.63a1 1 0 0 1 1.732-.226c16.031 21.637 41.131 38.784 76.735 52.421a1.001 1.001 0 0 1 .198 1.765C77.047 66.8 58.846 82.435 39.656 102.387c-.764.788-1.522 1.585-2.279 2.382-.634.661-1.238 1.295-1.834 1.934l-.158.168a.994.994 0 0 1-.736.324zM2.316 41.849C21.01 48.681 31.858 69.01 35.432 103.91l.467-.489c.79-.832 1.552-1.634 2.319-2.424 18.731-19.475 36.539-34.867 54.38-46.996C58.347 40.638 33.857 23.939 17.834 3.02z" fill="#112c41"/></svg></g><g transform="translate(1077.0 156.0) rotate(0.0 43.0 36.0) scale(1.0134219488339755 1.0276758824452976)"><svg width="84.861" height="70.061" viewBox="0 0 84.861 70.061"><path d="M83.861 8.431c-.97 3.08-2 6.11-3.1 9.09-7.21 19.55-17.23 36.88-30.67 51.54-9.53-9.76-23.01-16-39.44-19.61h-.02c-2.39-.52-4.84-.99-7.35-1.41-.03 0-.05-.01-.06-.01h-.02c-.66-.11-1.32-.22-1.99-.32 25.7-10.88 45.99-25.72 58.5-46.26 9.39-.36 17.63 1.57 24.15 6.98z" fill="#fcaa51"/><path d="M50.091 70.061c-.269 0-.527-.108-.716-.301-9.003-9.221-21.72-15.54-38.876-19.318a.916.916 0 0 1-.081-.013c-2.363-.514-4.82-.985-7.302-1.401l-.01-.001a.613.613 0 0 1-.069-.009c-.654-.109-1.309-.218-1.973-.317a1 1 0 0 1-.242-1.91C28.117 35.235 47.1 20.234 58.857.93c.174-.286.481-.466.816-.479 10.381-.394 18.5 1.961 24.827 7.21.313.26.438.682.315 1.07a200.429 200.429 0 0 1-3.116 9.136c-7.45 20.2-17.836 37.651-30.871 51.869a.998.998 0 0 1-.721.324l-.016.001zM10.782 48.46c.03.004.058.008.084.014 17.114 3.76 29.949 10.025 39.193 19.137 12.529-13.884 22.54-30.846 29.764-50.436a196.11 196.11 0 0 0 2.879-8.396C76.954 4.24 69.608 2.16 60.282 2.432c-11.54 18.704-29.738 33.399-55.55 44.843 2.054.361 4.083.758 6.05 1.185z" fill="#112c41"/><path d="M80.761 17.521c-7.21 19.55-17.23 36.88-30.67 51.54-9.53-9.76-30.51-18.19-46.94-21.8 7.86.97 29.46.987 44-5 17-7 26-14 33.61-24.74z" fill="#ff9522"/><path d="M49.88 69.652c-.269 0-.527-.108-.716-.301-9.003-9.221-21.721-15.54-38.877-19.318a1.49 1.49 0 0 1-.08-.013 155.584 155.584 0 0 0-7.303-1.401l-.01-.001a.665.665 0 0 1-.07-.009c-.681-.113-1.322-.22-1.973-.317a1 1 0 0 1-.242-1.91C27.905 34.826 46.889 19.825 58.646.522c.174-.286.481-.466.816-.479 10.379-.396 18.5 1.96 24.827 7.21.312.26.437.682.315 1.07a199.46 199.46 0 0 1-3.116 9.135c-7.45 20.2-17.836 37.652-30.871 51.87a.998.998 0 0 1-.721.324h-.016zM10.571 48.051a.98.98 0 0 1 .084.014c17.114 3.76 29.949 10.025 39.193 19.137 12.529-13.884 22.54-30.846 29.764-50.436a197.863 197.863 0 0 0 2.879-8.396c-5.748-4.539-13.09-6.615-22.42-6.347-11.54 18.704-29.738 33.399-55.55 44.843 2.054.361 4.083.759 6.05 1.185z" fill="#112c41"/></svg></g><g transform="translate(1532.0 965.0) rotate(0.0 50.0 53.0) scale(1.0061779325055844 1.001890359168242)"><svg width="99.386" height="105.8" viewBox="0 0 99.386 105.8"><path d="M34.052 17.543C23.546 27.841 12.846 56 28.024 71.348c11.959 12.092 35.549 7.512 42.9-6.31 1.484-2.792 5.177-9.066-.338-14.862 5.515 5.8 5.324 11.44 4.579 14.968-4.009 19-32.436 31.78-53.5 18.265C-10.154 63-2.154 20 24.846 1c0 0 9.366 16.71 9.206 16.543z" fill="#6ecfea"/><path d="M41.07 90.011a36.858 36.858 0 0 1-19.953-5.76C7.837 75.73.341 62.547.011 47.128-.371 29.249 9.151 10.822 24.271.182a1 1 0 0 1 1.447.329s2.314 4.128 4.622 8.26c1.154 2.067 2.307 4.135 3.169 5.689 1.822 3.285 1.859 3.353 1.184 3.855-6.343 6.26-13.115 19.835-13.215 32.755-.063 8.056 2.379 14.642 7.257 19.575 5.245 5.3 13.185 7.62 21.788 6.359 8.633-1.266 16.109-6.031 19.513-12.435l.174-.325c1.558-2.908 4.46-8.32-.353-13.378a1 1 0 1 1 1.448-1.379c4.443 4.669 6.07 10.006 4.834 15.863-1.928 9.136-9.294 17.191-19.7 21.546a39.848 39.848 0 0 1-15.369 3.115zM24.521 2.466C10.455 12.821 1.65 30.211 2.011 47.085 2.326 61.817 9.495 74.418 22.2 82.567a36.128 36.128 0 0 0 33.466 2.484c9.8-4.1 16.727-11.62 18.519-20.114a15.05 15.05 0 0 0 .136-5.878 20.311 20.311 0 0 1-2.346 6.13l-.17.318c-3.7 6.955-11.738 12.119-20.988 13.476s-17.8-1.171-23.5-6.932c-5.192-5.25-7.9-12.51-7.835-21 .1-13.293 6.706-26.83 13.347-33.695-1.173-2.135-5.244-9.421-8.308-14.89z" fill="#112c41"/><path d="M97.359 82.671c-12.97 9.581-30.351 8.253-39.48-5.225-10.235-15.108 3.706-35.274 12.7-27.27C58.828 39.274 39.8 56.8 45.809 79.268c6.471 24.21 33.847 32.671 52.577 18.99z" fill="#9dd9f4"/><path d="M78.409 105.792a34.576 34.576 0 0 1-33.566-26.266c-3.828-14.318 2.237-26.668 10.2-31.467 5.589-3.365 11.65-2.849 16.213 1.384a1 1 0 0 1-1.345 1.48c-3.622-3.224-7.349-.649-8.782.608-5.157 4.519-8.87 15.844-2.427 25.354a24.206 24.206 0 0 0 16.227 10.632 28.958 28.958 0 0 0 21.836-5.65 1 1 0 0 1 1.592.738l1.027 15.587a1 1 0 0 1-.408.873 34.861 34.861 0 0 1-20.567 6.727zM62.5 47.843a12.44 12.44 0 0 0-6.417 1.929c-7.328 4.414-12.877 15.874-9.3 29.238a32.626 32.626 0 0 0 50.569 18.76l-.874-13.263a30.674 30.674 0 0 1-21.886 4.981 26.507 26.507 0 0 1-17.541-11.481 22 22 0 0 1-3.49-15.832 20.771 20.771 0 0 1 6.255-12.148 11.385 11.385 0 0 1 3.484-2.152q-.4-.031-.8-.032z" fill="#112c41"/></svg></g><g transform="translate(173.0 852.0) rotate(0.0 84.0 97.5) translate(75.0 0.0) scale(0.9967900985516878 0.9977078302157095)"><svg width="93.299" height="195.448" viewBox="75.242 0 93.299 195.448"><path d="M20 1c11 29 48.38 48.46 65 54 1.29.43 2.57.81 3.84 1.16.05.01.09.02.13.03C125.93 66.04 152.8 39.2 160 54c4.83 9.93-11.79 23.03-11 32 .54 6.11 14.7 7.16 18.2 26.56 1.83 10.17-4.12 21.73-11.58 26.33C156 155 150 169 131 170c5 17-31 39-56 11-16.35-2.8-43.421-5.198-74-22" style="fill:#ffd6c0"/><path d="M101.971 195.448c-9.676 0-19.931-3.857-27.522-13.527-1.783-.302-3.688-.605-5.707-.927-16.27-2.589-40.857-6.501-68.213-21.112a1 1 0 0 1 .942-1.764c27.06 14.453 51.447 18.333 67.585 20.901 2.172.346 4.213.67 6.113.996.248.042.47.177.624.376 10.848 14.102 27.635 15.387 39.458 10.405 10.147-4.276 15.941-12.383 14.76-20.654A1 1 0 0 1 131 169c7.055 0 12.97-2.359 17.105-6.821 4.938-5.328 7.252-13.572 6.518-23.213a1.001 1.001 0 0 1 .472-.927c6.785-4.184 12.966-15.047 11.121-25.302-2.141-11.868-8.354-16.613-12.892-20.077-2.839-2.168-5.083-3.881-5.32-6.572-.371-4.212 2.6-8.956 5.746-13.978 3.859-6.162 7.85-12.534 5.351-17.672-2.907-5.974-9.298-4.384-21.287-.802-13.37 3.994-31.68 9.464-53.13 2.314-14.3-4.768-53.963-23.867-65.619-54.595a1 1 0 0 1 1.871-.71c11.379 30 50.332 48.723 64.381 53.406 20.849 6.95 38.81 1.585 51.925-2.333 11.537-3.447 19.872-5.936 23.658 1.844 2.984 6.136-1.306 12.985-5.455 19.609-2.962 4.73-5.761 9.197-5.449 12.741.16 1.812 1.998 3.216 4.542 5.158 4.527 3.456 11.367 8.68 13.646 21.312 1.948 10.825-4.388 22.282-11.525 27.029.636 9.948-1.871 18.498-7.087 24.127-4.302 4.642-10.32 7.203-17.459 7.443.672 8.797-5.523 17.206-16.086 21.657-4.232 1.783-9.068 2.809-14.056 2.81Z" style="fill:#112c41"/><g><path d="M155 149c2-11-3-21-11-25" style="fill:#ffd6c0"/><path d="M155.001 150a1 1 0 0 1-.985-1.179c1.834-10.09-2.468-19.929-10.463-23.927a1 1 0 0 1 .895-1.789c8.785 4.393 13.529 15.114 11.537 26.073a1 1 0 0 1-.983.821Z" style="fill:#112c41"/></g><path d="M94 182c-1.747 0-17.34-.036-26.903-1.269a1 1 0 1 1 .256-1.984C76.792 179.964 92.267 180 94 180a1 1 0 0 1 0 2Zm37.187-7.234a1 1 0 0 1-.999-.972c-.173-6.265-4.748-13.886-14.384-15.813a.999.999 0 0 1-.784-1.177.998.998 0 0 1 1.177-.784c10.709 2.142 15.796 10.686 15.99 17.719a1 1 0 0 1-.972 1.027h-.028Z" style="fill:#112c41"/></svg></g></svg>