<svg fill="#000000" xmlns="http://www.w3.org/2000/svg"  viewBox="0 0 30 30" width="240px" height="240px"><path d="M 9 6 C 5.686 6 3 8.686 3 12 L 3 24 C 3 25.105 3.895 26 5 26 L 9 26 L 15 26 L 25 26 C 26.093063 26 27 25.093063 27 24 L 27 12 C 27 8.6983746 24.301625 6 21 6 L 9 6 z M 13.462891 8 L 21 8 C 23.220375 8 25 9.7796254 25 12 L 25 24 L 15 24 L 15 12 C 15 10.460723 14.415617 9.0620853 13.462891 8 z M 19 10 A 2 2 0 0 0 17 12 A 2 2 0 0 0 19 14 L 19 21 L 21 21 L 23 21 L 23 17 L 21 17 L 21 12 A 2 2 0 0 0 19 10 z M 7 12 L 11 12 C 11.552 12 12 12.448 12 13 C 12 13.552 11.552 14 11 14 L 7 14 C 6.448 14 6 13.552 6 13 C 6 12.448 6.448 12 7 12 z"/></svg>